<?xml version="1.0" standalone="no"?>
<!DOCTYPE svg PUBLIC "-//W3C//DTD SVG 1.1//EN" "http://www.w3.org/Graphics/SVG/1.1/DTD/svg11.dtd">
<svg xmlns="http://www.w3.org/2000/svg">
<metadata>Generated by Fontastic.me</metadata>
<defs>
<font id="ec-icon" horiz-adv-x="512">
<font-face font-family="ec-icon" units-per-em="512" ascent="480" descent="-32"/>
<missing-glyph horiz-adv-x="512" />

<glyph glyph-name="add" unicode="&#97;" d="M448 277l-171 0 0 171-42 0 0-171-171 0 0-42 171 0 0-171 42 0 0 171 171 0z"/>
<glyph glyph-name="add-circle" unicode="&#98;" d="M256 469c-118 0-213-95-213-213 0-118 95-213 213-213 118 0 213 95 213 213 0 118-95 213-213 213z m0-384c-94 0-171 77-171 171 0 94 77 171 171 171 94 0 171-77 171-171 0-94-77-171-171-171z m21 278l-42 0 0-86-86 0 0-42 86 0 0-86 42 0 0 86 86 0 0 42-86 0z"/>
<glyph glyph-name="alarm" unicode="&#99;" d="M183 107c14-26 42-43 73-43 31 0 59 17 73 43z m265 21l-384 0 0 58 15 5c29 10 49 37 49 68l0 61c0 71 57 128 128 128 71 0 128-57 128-128l0-61c0-31 20-58 49-68l15-5z m-319 43l254 0c-26 21-42 53-42 88l0 61c0 47-38 85-85 85-47 0-85-38-85-85l0-61c0-35-16-67-42-88z"/>
<glyph glyph-name="clock" unicode="&#100;" d="M256 43c-106 0-192 86-192 192 0 106 86 192 192 192 106 0 192-86 192-192 0-106-86-192-192-192z m0 341c-82 0-149-67-149-149 0-83 67-150 149-150 82 0 149 67 149 150 0 82-67 149-149 149z m195-45c11 12 18 28 18 45 0 35-28 64-64 64-17 0-33-7-44-18z m-390 0c-11 12-18 28-18 45 0 35 28 64 64 64 17 0 33-7 44-18z m244-183l-64 64c-4 4-6 9-6 15l0 106 42 0 0-98 58-57z"/>
<glyph glyph-name="alarm-silent" unicode="&#101;" d="M183 85c14-25 42-42 73-42 31 0 59 17 73 42z m-12 189l0 25c0 47 38 85 85 85 8 0 15-1 22-3l33 33c-17 8-35 13-55 13-71 0-128-58-128-128l0-61c0-2 0-5-1-8z m213-36l0 61c0 19-5 38-13 55l97 96-31 30-419-420 30-30 76 77 324 0 0 58-15 5c-29 9-49 37-49 68z m-217-89l171 171c2-7 3-14 3-21l0-61c0-35 16-67 42-89z"/>
<glyph glyph-name="align-center" unicode="&#102;" d="M64 448l384 0 0-43-384 0z m43-85l298 0 0-43-298 0z m-64-86l426 0 0-42-426 0z m64-85l298 0 0-43-298 0z m-43-85l384 0 0-43-384 0z"/>
<glyph glyph-name="align-justify" unicode="&#103;" d="M43 448l426 0 0-43-426 0z m0-85l426 0 0-43-426 0z m0-86l426 0 0-42-426 0z m0-85l426 0 0-43-426 0z m0-85l298 0 0-43-298 0z"/>
<glyph glyph-name="align-left" unicode="&#104;" d="M43 448l384 0 0-43-384 0z m0-85l298 0 0-43-298 0z m0-86l426 0 0-42-426 0z m0-85l298 0 0-43-298 0z m0-85l384 0 0-43-384 0z"/>
<glyph glyph-name="align-right" unicode="&#105;" d="M85 448l384 0 0-43-384 0z m86-85l298 0 0-43-298 0z m-128-86l426 0 0-42-426 0z m128-85l298 0 0-43-298 0z m-86-85l384 0 0-43-384 0z"/>
<glyph glyph-name="all-caps" unicode="&#106;" d="M213 384l-170 0c-12 0-22-10-22-21l0-64 43 0 0 42 43 0 0-213-43 0 0-43 128 0 0 43-43 0 0 213 43 0 0-42 43 0 0 64c0 11-10 21-22 21z m256 0l-170 0c-12 0-22-10-22-21l0-64 43 0 0 42 43 0 0-213-43 0 0-43 128 0 0 43-43 0 0 213 43 0 0-42 43 0 0 64c0 11-10 21-22 21z"/>
<glyph glyph-name="code" unicode="&#107;" d="M299 435l0-60 119-119-119-119 0-61 179 180z m-86-359l0 61-119 119 119 119 0 60-179-179z"/>
<glyph glyph-name="angle-tool" unicode="&#108;" d="M326 356l30-30-42-42-30 30z m86 86l30-30-43-43-30 30z m-248-308l-30 30 43 43 30-30z m-79 206l0 87-42 0 0-384 384 0 0 42-87 0c-10 136-119 245-255 255z m0-42c113-11 202-100 213-213l-213 0z"/>
<glyph glyph-name="arrange-1-to-9" unicode="&#109;" d="M192 137l0 311-43 0 0-311-49 49-30-30 101-101 100 101-30 30z m192 140l43 0 0 171c0 12-10 21-22 21l-64 0 0-42 43 0z m43-42l-86 0c-11 0-21-10-21-22l0-85c0-12 10-21 21-21l64 0 0-22-85 0 0-42 107 0c11 0 21 9 21 21l0 149c0 12-10 22-21 22z m-22-86l-42 0 0 43 42 0z"/>
<glyph glyph-name="arrange-9-to-1" unicode="&#110;" d="M192 137l0 311-43 0 0-311-49 49-30-30 101-101 100 101-30 30z m213 98l-64 0 0-43 43 0 0-149 43 0 0 170c0 12-10 22-22 22z m22 234l-86 0c-11 0-21-9-21-21l0-85c0-12 10-22 21-22l64 0 0-21-85 0 0-43 107 0c11 0 21 10 21 22l0 149c0 12-10 21-21 21z m-22-85l-42 0 0 43 42 0z"/>
<glyph glyph-name="arrange-a-to-z" unicode="&#111;" d="M427 469l-86 0c-11 0-21-9-21-21l0-149 43 0 0 42 42 0 0-42 43 0 0 149c0 12-10 21-21 21z m-64-85l0 43 42 0 0-43z m81-204c5 7 5 15 1 22-3 7-10 11-18 11l-107 0 0-42 67 0-63-95c-5-7-5-15-1-22 3-7 10-11 18-11l107 0 0 42-67 0z m-252-43l0 311-43 0 0-311-49 49-30-30 101-101 100 101-30 30z"/>
<glyph glyph-name="arrange-z-to-a" unicode="&#112;" d="M381 341l63 95c5 7 5 15 1 22-3 7-10 11-18 11l-107 0 0-42 67 0-63-95c-5-7-5-15-1-22 3-7 10-11 18-11l107 0 0 42z m-189-204l0 311-43 0 0-311-49 49-30-30 101-101 100 101-30 30z m235 76l-86 0c-11 0-21-9-21-21l0-149 43 0 0 42 42 0 0-42 43 0 0 149c0 12-10 21-21 21z m-64-85l0 43 42 0 0-43z"/>
<glyph glyph-name="arrow-down" unicode="&#113;" d="M326 186l-49-49 0 332-42 0 0-332-49 49-30-30 100-101 100 101z"/>
<glyph glyph-name="arrow-down-left" unicode="&#114;" d="M420 390l-30 30-262-262 0 77-43 0 0-150 150 0 0 43-77 0z"/>
<glyph glyph-name="arrow-down-right" unicode="&#115;" d="M384 235l0-77-262 262-30-30 262-262-77 0 0-43 150 0 0 150z"/>
<glyph glyph-name="arrow-left" unicode="&#116;" d="M469 277l-332 0 49 49-30 30-101-100 101-100 30 30-49 49 332 0z"/>
<glyph glyph-name="arrow-return" unicode="&#117;" d="M363 384l-107 0 0-43 107 0c35 0 64-28 64-64 0-35-29-64-64-64l-226 0 49 49-30 30-101-100 101-100 30 30-49 49 226 0c58 0 106 48 106 106 0 59-48 107-106 107z"/>
<glyph glyph-name="arrow-right" unicode="&#118;" d="M356 356l-30-30 49-49-332 0 0-42 332 0-49-49 30-30 101 100z"/>
<glyph glyph-name="arrow-up" unicode="&#119;" d="M356 356l-100 101-100-101 30-30 49 49 0-332 42 0 0 332 49-49z"/>
<glyph glyph-name="arrow-up-left" unicode="&#120;" d="M420 122l-262 262 77 0 0 43-150 0 0-150 43 0 0 77 262-262z"/>
<glyph glyph-name="arrow-up-right" unicode="&#121;" d="M277 427l0-43 77 0-262-262 30-30 262 262 0-77 43 0 0 150z"/>
<glyph glyph-name="artboard" unicode="&#122;" d="M128 128l256 0 0 256-256 0z m43 213l170 0 0-170-170 0z m170 150l43 0 0-64-43 0z m-213 0l43 0 0-64-43 0z m213-406l43 0 0-64-43 0z m-213 0l43 0 0-64-43 0z m299 299l64 0 0-43-64 0z m0-213l64 0 0-43-64 0z m-406 213l64 0 0-43-64 0z m0-213l64 0 0-43-64 0z"/>
<glyph glyph-name="asterisk" unicode="&#65;" d="M469 277l-176 0 88 153-37 21-88-152-88 152-37-21 88-153-176 0 0-42 176 0-88-153 37-21 88 152 88-152 37 21-88 153 176 0z"/>
<glyph glyph-name="at-sign" unicode="&#66;" d="M256 469c-118 0-213-95-213-213 0-118 95-213 213-213 44 0 85 13 121 37l-25 35c-28-19-61-30-96-30-94 0-171 77-171 171 0 94 77 171 171 171 94 0 171-77 171-171l0-17c0-29-13-47-34-47l-1 0c-1 0-2 0-4 0l-4 0c-12 0-30 17-30 29l0 35c0 54-44 98-98 98-54 0-98-44-98-98 0-54 44-98 98-98 26 0 50 10 68 27 14-20 37-36 60-36l0 1c1-1 3-1 4-1l5 0c45 0 76 36 76 90l0 17c0 118-95 213-213 213z m0-268c-31 0-55 24-55 55 0 31 24 55 55 55 31 0 55-24 55-55 0-31-24-55-55-55z"/>
<glyph glyph-name="bank" unicode="&#67;" d="M43 85l405 0 0-42-405 0z m416 253l-202 128c-7 4-16 4-23 0l-203-128c-8-5-11-15-9-24 3-9 11-15 21-15l405 0c9 0 18 6 21 15 2 9-2 19-10 24z m-343 3l129 82 129-82z m33-234c12 0 22 9 22 21l0 128c0 12-10 21-22 21l-64 0c-11 0-21-9-21-21l0-128c0-12 10-21 21-21z m-42 128l21 0 0-86-21 0z m170-128c12 0 22 9 22 21l0 128c0 12-10 21-22 21l-64 0c-11 0-21-9-21-21l0-128c0-12 10-21 21-21z m-42 128l21 0 0-86-21 0z m170-128c12 0 22 9 22 21l0 128c0 12-10 21-22 21l-64 0c-11 0-21-9-21-21l0-128c0-12 10-21 21-21z m-42 128l21 0 0-86-21 0z"/>
<glyph glyph-name="bank-note" unicode="&#68;" d="M448 405l-384 0c-12 0-21-9-21-21l0-256c0-12 9-21 21-21l384 0c12 0 21 9 21 21l0 256c0 12-9 21-21 21z m-21-119l-77 77 77 0z m-342-60l77-77-77 0z m137-77l-137 137 0 77 205 0 137-137 0-77z m34 192c-47 0-85-38-85-85 0-47 38-85 85-85 47 0 85 38 85 85 0 47-38 85-85 85z m0-128c-24 0-43 19-43 43 0 24 19 43 43 43 24 0 43-19 43-43 0-24-19-43-43-43z"/>
<glyph glyph-name="banking-debit-machine" unicode="&#69;" d="M277 399l0 92c0 7-3 13-9 17-5 4-12 5-19 3l-55-19-35 18c-6 3-13 3-19 0l-35-18-56 19c-6 2-13 1-19-3-5-4-9-10-9-17l0-92c-12-7-21-21-21-36l0-320c0-24 19-43 43-43l213 0c24 0 43 19 43 43l0 320c0 15-9 29-22 36z m-177 50c5-2 11-1 16 1l33 17 33-17c6-2 11-3 17-1l36 12 0-56-171 0 0 56z m156-406l-213 0 0 320 213 0z m-192 298l171 0 0-85-171 0z m43-128c0-11-10-21-22-21-11 0-21 10-21 21 0 12 10 22 21 22 12 0 22-10 22-22z m128 0c0-11-10-21-22-21-11 0-21 10-21 21 0 12 10 22 21 22 12 0 22-10 22-22z m-64 0c0-11-10-21-22-21-11 0-21 10-21 21 0 12 10 22 21 22 12 0 22-10 22-22z m-64-64c0-11-10-21-22-21-11 0-21 10-21 21 0 12 10 22 21 22 12 0 22-10 22-22z m128 0c0-11-10-21-22-21-11 0-21 10-21 21 0 12 10 22 21 22 12 0 22-10 22-22z m-64 0c0-11-10-21-22-21-11 0-21 10-21 21 0 12 10 22 21 22 12 0 22-10 22-22z m-64-64c0-11-10-21-22-21-11 0-21 10-21 21 0 12 10 22 21 22 12 0 22-10 22-22z m128 0c0-11-10-21-22-21-11 0-21 10-21 21 0 12 10 22 21 22 12 0 22-10 22-22z m-64 0c0-11-10-21-22-21-11 0-21 10-21 21 0 12 10 22 21 22 12 0 22-10 22-22z m320 256l-150 0c-11 0-21-9-21-21l0-213c0-12 10-22 21-22l150 0c11 0 21 10 21 22l0 213c0 12-10 21-21 21z m-128-42l21 0 0-171-21 0z m106-171l-42 0 0 171 42 0z"/>
<glyph glyph-name="barcode" unicode="&#70;" d="M43 427l42 0 0-342-42 0z m85 0l43 0 0-256-43 0z m64 0l43 0 0-256-43 0z m85 0l43 0 0-256-43 0z m86 0l42 0 0-256-42 0z m64 0l42 0 0-342-42 0z m-299-299l43 0 0-43-43 0z m64 0l43 0 0-43-43 0z m85 0l43 0 0-43-43 0z m86 0l42 0 0-43-42 0z"/>
<glyph glyph-name="trash" unicode="&#71;" d="M107 85c0-23 19-42 42-42l214 0c23 0 42 19 42 42l0 256-298 0z m42 214l214 0 0-214-214 0z m171 106l0 43-128 0 0-43-128 0 0-42 384 0 0 42z m-128-149l43 0 0-128-43 0z m85 0l43 0 0-128-43 0z"/>
<glyph glyph-name="binoculars" unicode="&#72;" d="M468 156l-77 251c-8 24-30 41-56 41-32 0-58-26-58-58l0-27-42 0 0 27c0 32-26 58-58 58-26 0-48-17-56-41l-77-251c-1-2-1-5-1-7l0-10c0-53 43-96 96-96 53 0 96 43 96 96l0 96 42 0 0-96c0-53 43-96 96-96 53 0 96 43 96 96l0 10c0 2 0 5-1 7z m-329-71c-30 0-54 24-54 54 0 29 24 53 54 53 29 0 53-24 53-53 0-30-24-54-53-54z m53 133c-15 11-34 17-53 17-10 0-19-2-28-5l51 164c2 7 8 11 15 11 8 0 15-7 15-15z m43 59l0 43 42 0 0-43z m85 86l0 27c0 8 7 15 15 15 7 0 13-4 15-11l51-164c-9 3-18 5-28 5-19 0-38-6-53-17z m53-278c-29 0-53 24-53 54 0 29 24 53 53 53 30 0 54-24 54-53 0-30-24-54-54-54z"/>
<glyph glyph-name="bitcoin-coin" unicode="&#73;" d="M256 469c-118 0-213-95-213-213 0-118 95-213 213-213 118 0 213 95 213 213 0 118-95 213-213 213z m0-384c-94 0-171 77-171 171 0 94 77 171 171 171 94 0 171-77 171-171 0-94-77-171-171-171z m21 255l0 23-42 0 0-22-43 0 0-170 43 0 0-22 42 0 0 23c25 5 43 26 43 52 0 12-4 23-11 32 7 9 11 20 11 32 0 26-18 47-43 52z m0-52c0-6-4-11-10-11l-32 0 0 22 32 0c6 0 10-5 10-11z m-10-75l-32 0 0 22 32 0c6 0 10-5 10-11 0-6-4-11-10-11z"/>
<glyph glyph-name="bold" unicode="&#74;" d="M352 287c20 19 32 46 32 76 0 58-48 106-107 106l-192 0 0-42 43 0 0-342-43 0 0-42 214 0c70 0 128 57 128 128 0 51-31 95-75 116z m-75 140c36 0 64-29 64-64 0-36-28-64-64-64l-106 0 0 128z m22-342l-128 0 0 171 128 0c47 0 85-38 85-85 0-47-38-86-85-86z"/>
<glyph glyph-name="bookmark" unicode="&#75;" d="M192 43c-3 0-6 0-8 1-8 4-13 11-13 20l0 107-107 0c-9 0-16 5-20 13-3 8-1 17 5 23l256 256c8 8 22 8 30 0l128-128c8-8 8-22 0-30l-256-256c-4-4-9-6-15-6z m-76 170l76 0c12 0 21-9 21-21l0-77 205 205-98 98z"/>
<glyph glyph-name="border-bottom" unicode="&#76;" d="M235 448l42 0 0-43-42 0z m0-85l42 0 0-43-42 0z m-86 85l43 0 0-43-43 0z m-85 0l43 0 0-43-43 0z m341 0l43 0 0-43-43 0z m-341-85l43 0 0-43-43 0z m0-86l43 0 0-42-43 0z m85 0l43 0 0-42-43 0z m86 0l42 0 0-42-42 0z m0-85l42 0 0-43-42 0z m85 85l43 0 0-42-43 0z m-256-85l43 0 0-43-43 0z m341 171l43 0 0-43-43 0z m0-86l43 0 0-42-43 0z m0-85l43 0 0-43-43 0z m-85 256l43 0 0-43-43 0z m-256-341l384 0 0-43-384 0z"/>
<glyph glyph-name="border-inside" unicode="&#77;" d="M149 448l43 0 0-43-43 0z m-85-85l43 0 0-43-43 0z m0-171l43 0 0-43-43 0z m85-85l43 0 0-43-43 0z m-85 341l43 0 0-43-43 0z m0-341l43 0 0-43-43 0z m256 0l43 0 0-43-43 0z m85 256l43 0 0-43-43 0z m0-171l43 0 0-43-43 0z m-85 256l43 0 0-43-43 0z m85-341l43 0 0-43-43 0z m0 341l43 0 0-43-43 0z m-128 0l-42 0 0-171-171 0 0-42 171 0 0-171 42 0 0 171 171 0 0 42-171 0z"/>
<glyph glyph-name="border-inside-horizontal" unicode="&#78;" d="M149 448l43 0 0-43-43 0z m-85-85l43 0 0-43-43 0z m0-86l43 0 0-42-43 0z m85 0l43 0 0-42-43 0z m171 0l43 0 0-42-43 0z m-256-85l43 0 0-43-43 0z m85-85l43 0 0-43-43 0z m-85 341l43 0 0-43-43 0z m0-341l43 0 0-43-43 0z m256 0l43 0 0-43-43 0z m85 0l43 0 0-43-43 0z m0 256l43 0 0-43-43 0z m0-86l43 0 0-42-43 0z m0-85l43 0 0-43-43 0z m-85 256l43 0 0-43-43 0z m85 0l43 0 0-43-43 0z m-170 0l42 0 0-384-42 0z"/>
<glyph glyph-name="border-inside-vertical" unicode="&#79;" d="M235 448l42 0 0-43-42 0z m0-85l42 0 0-43-42 0z m-86 85l43 0 0-43-43 0z m-85 0l43 0 0-43-43 0z m0-85l43 0 0-43-43 0z m171-171l42 0 0-43-42 0z m-171 0l43 0 0-43-43 0z m85-85l43 0 0-43-43 0z m-85 0l43 0 0-43-43 0z m171 0l42 0 0-43-42 0z m85 0l43 0 0-43-43 0z m85 256l43 0 0-43-43 0z m0-171l43 0 0-43-43 0z m-85 256l43 0 0-43-43 0z m85-341l43 0 0-43-43 0z m0 341l43 0 0-43-43 0z m-341-171l384 0 0-42-384 0z"/>
<glyph glyph-name="border-left" unicode="&#80;" d="M235 448l42 0 0-43-42 0z m0-85l42 0 0-43-42 0z m-86 85l43 0 0-43-43 0z m0-171l43 0 0-42-43 0z m86 0l42 0 0-42-42 0z m0-85l42 0 0-43-42 0z m85 85l43 0 0-42-43 0z m-171-170l43 0 0-43-43 0z m86 0l42 0 0-43-42 0z m85 0l43 0 0-43-43 0z m85 0l43 0 0-43-43 0z m0 256l43 0 0-43-43 0z m0-86l43 0 0-42-43 0z m0-85l43 0 0-43-43 0z m-85 256l43 0 0-43-43 0z m85 0l43 0 0-43-43 0z m-341 0l43 0 0-384-43 0z"/>
<glyph glyph-name="border-none" unicode="&#81;" d="M235 448l42 0 0-43-42 0z m0-85l42 0 0-43-42 0z m-86 85l43 0 0-43-43 0z m-85 0l43 0 0-43-43 0z m0-85l43 0 0-43-43 0z m0-86l43 0 0-42-43 0z m85 0l43 0 0-42-43 0z m86 0l42 0 0-42-42 0z m0-85l42 0 0-43-42 0z m85 85l43 0 0-42-43 0z m-256-85l43 0 0-43-43 0z m85-85l43 0 0-43-43 0z m86 0l42 0 0-43-42 0z m85 0l43 0 0-43-43 0z m85 256l43 0 0-43-43 0z m0-86l43 0 0-42-43 0z m0-85l43 0 0-43-43 0z m0-85l43 0 0-43-43 0z m-341 0l43 0 0-43-43 0z m256 341l43 0 0-43-43 0z m85 0l43 0 0-43-43 0z"/>
<glyph glyph-name="border-outside" unicode="&#82;" d="M235 363l42 0 0-43-42 0z m-86-86l43 0 0-42-43 0z m86 0l42 0 0-42-42 0z m0-85l42 0 0-43-42 0z m85 85l43 0 0-42-43 0z m-256 171l0-384 384 0 0 384z m341-341l-298 0 0 298 298 0z"/>
<glyph glyph-name="border-right" unicode="&#83;" d="M235 448l42 0 0-43-42 0z m0-85l42 0 0-43-42 0z m-86 85l43 0 0-43-43 0z m-85-85l43 0 0-43-43 0z m0-86l43 0 0-42-43 0z m85 0l43 0 0-42-43 0z m86 0l42 0 0-42-42 0z m0-85l42 0 0-43-42 0z m85 85l43 0 0-42-43 0z m-256-85l43 0 0-43-43 0z m85-85l43 0 0-43-43 0z m-85 341l43 0 0-43-43 0z m0-341l43 0 0-43-43 0z m171 0l42 0 0-43-42 0z m85 0l43 0 0-43-43 0z m0 341l43 0 0-43-43 0z m85 0l43 0 0-384-43 0z"/>
<glyph glyph-name="border-top" unicode="&#84;" d="M235 363l42 0 0-43-42 0z m-171 0l43 0 0-43-43 0z m0-86l43 0 0-42-43 0z m85 0l43 0 0-42-43 0z m86 0l42 0 0-42-42 0z m0-85l42 0 0-43-42 0z m85 85l43 0 0-42-43 0z m-256-85l43 0 0-43-43 0z m85-85l43 0 0-43-43 0z m86 0l42 0 0-43-42 0z m85 0l43 0 0-43-43 0z m85 0l43 0 0-43-43 0z m0 256l43 0 0-43-43 0z m0-86l43 0 0-42-43 0z m0-85l43 0 0-43-43 0z m-341-85l43 0 0-43-43 0z m0 341l384 0 0-43-384 0z"/>
<glyph glyph-name="box" unicode="&#85;" d="M469 320c0 3 0 5-1 8 0 0-1 1-1 1 0 1-1 2-1 3l-86 128c-4 6-10 9-17 9l-214 0c-7 0-13-3-17-9l-86-128c0-1-1-2-1-3 0 0-1-1-1-1-1-3-1-5-1-8 0 0 0 0 0 0l0-256c0-12 9-21 21-21l384 0c12 0 21 9 21 21l0 256c0 0 0 0 0 0z m-61 21l-131 0 0 86 74 0z m-247 86l74 0 0-86-131 0z m266-342l-342 0 0 214 342 0z"/>
<glyph glyph-name="briefcase" unicode="&#86;" d="M469 213l0 107c0 35-28 64-64 64l-64 0c0 47-38 85-85 85-47 0-85-38-85-85l-64 0c-36 0-64-29-64-64l0-107c0-10 8-19 18-20l-15-105c-2-12 2-23 9-32 8-8 19-13 30-13l342 0c11 0 22 5 30 13 7 9 11 20 9 32l-15 105c10 1 18 10 18 20z m-213 214c24 0 43-19 43-43l-86 0c0 24 19 43 43 43z m-171-107c0 12 10 21 22 21l298 0c12 0 22-9 22-21l0-85-107 0 0 21c0 12-10 21-21 21l-86 0c-11 0-21-9-21-21l0-21-107 0z m192-85l0-51-21-11-21 11 0 51z m-188-150l15 107 88 0 0-21c0-8 5-16 12-19l42-22c3-1 7-2 10-2 3 0 7 1 10 2l42 22c7 3 12 11 12 19l0 21 88 0 15-107z"/>
<glyph glyph-name="bus" unicode="&#87;" d="M469 384l-426 0c-24 0-43-19-43-43l0-234c0-12 10-22 21-22l47 0c9-24 32-42 60-42 28 0 51 18 60 42l136 0c9-24 32-42 60-42 28 0 51 18 60 42l47 0c11 0 21 10 21 22l0 234c0 24-19 43-43 43z m0-107l-64 0 0 64 64 0z m-277 64l64 0 0-64-64 0z m107 0l64 0 0-64-64 0z m-150 0l0-71-106-46 0 117z m-21-256c-12 0-21 10-21 22 0 11 9 21 21 21 12 0 21-10 21-21 0-12-9-22-21-22z m256 0c-12 0-21 10-21 22 0 11 9 21 21 21 12 0 21-10 21-21 0-12-9-22-21-22z m60 43c-9 25-32 43-60 43-28 0-51-18-60-43l-136 0c-9 25-32 43-60 43-28 0-51-18-60-43l-25 0 0 50 132 57 294 0 0-107z"/>
<glyph glyph-name="graph-bar" unicode="&#88;" d="M469 43l0 277c0 12-9 21-21 21l-85 0c-12 0-22-9-22-21l0-277-21 0 0 149c0 12-10 21-21 21l-86 0c-11 0-21-9-21-21l0-149-21 0 0 192c0 11-10 21-22 21l-85 0c-12 0-21-10-21-21l0-192-43 0 0-43 512 0 0 43z m-85 256l43 0 0-256-43 0z m-149-128l42 0 0-128-42 0z m-150 42l43 0 0-170-43 0z"/>
<glyph glyph-name="graph-pie" unicode="&#89;" d="M405 235l-170 0 0 170c0 6-3 12-8 16-4 4-10 6-16 5-96-11-168-94-168-191 0-106 86-192 192-192 97 0 180 72 191 168 1 6-1 12-5 16-4 5-10 8-16 8z m-170-150c-83 0-150 67-150 150 0 67 45 125 107 144l0-166c0-11 10-21 21-21l166 0c-19-62-77-107-144-107z m42 384c-11 0-21-9-21-21l0-171c0-11 10-21 21-21l171 0c12 0 21 10 21 21 0 106-86 192-192 192z m22-170l0 126c65-9 117-61 126-126z"/>
<glyph glyph-name="scale" unicode="&#90;" d="M510 244l0 0-70 140 29 0 0 43-192 0 0 42-42 0 0-42-192 0 0-43 29 0-70-140 0 0c-1-3-2-6-2-9 0-59 48-107 107-107 58 0 106 48 106 107 0 3-1 6-2 9l0 0-70 140 94 0 0-299-64 0 0-42 170 0 0 42-64 0 0 299 94 0-70-140 0 0c-1-3-2-6-2-9 0-59 48-107 106-107 59 0 107 48 107 107 0 3-1 6-2 9z m-403 114l50-102-101 0z m0-187c-28 0-52 17-61 42l121 0c-9-25-33-42-60-42z m349 85l-101 0 50 102z m-51-85c-27 0-51 17-60 42l121 0c-9-25-33-42-61-42z"/>
<glyph glyph-name="whiteboard" unicode="&#48;" d="M427 469l-342 0c-23 0-42-19-42-42l0-214c0-23 19-42 42-42l119 0-127-128 60 0 98 97 0-97 42 0 0 97 98-97 61 0-128 128 119 0c23 0 42 19 42 42l0 214c0 23-19 42-42 42z m0-42l0-43-342 0 0 43z m-342-214l0 128 342 0 0-128z"/>
<glyph glyph-name="graph-plot" unicode="&#49;" d="M405 192c24 0 43 19 43 43 0 23-19 42-43 42-23 0-42-19-42-42 0-1 0-1 0-1l-44-26c-6 3-13 5-20 5-10 0-19-3-27-9l-38 15c-3 21-21 37-42 37-21 0-39-16-42-37l-43-17 0 106 65 39c6-4 13-6 20-6 4 0 7 1 11 2l33-33c-1-4-1-8-1-11 0-24 19-43 42-43 24 0 43 19 43 43 0 3-1 7-2 11l76 76c4-1 8-2 11-2 24 0 43 19 43 43 0 23-19 42-43 42-23 0-42-19-42-42 0-4 0-8 1-11l-76-76c-3 1-7 1-11 1-3 0-7 0-11-1l-33 33c1 4 2 7 2 11 0 24-19 43-43 43-24 0-43-19-43-43 0 0 0 0 0-1l-42-25 0 90-43 0 0-363c0-11 10-21 21-21l363 0 0 43-341 0 0 49 59 24c7-6 16-9 26-9 10 0 19 3 26 9l39-16c3-20 20-36 42-36 23 0 42 19 42 43 0 0 0 0 0 0l44 26c6-3 13-5 20-5z"/>
<glyph glyph-name="calculator" unicode="&#50;" d="M363 469l-214 0c-23 0-42-19-42-42l0-342c0-23 19-42 42-42l214 0c23 0 42 19 42 42l0 342c0 23-19 42-42 42z m0-42l0-86-214 0 0 86z m-214-342l0 214 214 0 0-214z m64 171c0-12-9-21-21-21-12 0-21 9-21 21 0 12 9 21 21 21 12 0 21-9 21-21z m64 0c0-12-9-21-21-21-12 0-21 9-21 21 0 12 9 21 21 21 12 0 21-9 21-21z m64 0c0-12-9-21-21-21-12 0-21 9-21 21 0 12 9 21 21 21 12 0 21-9 21-21z m-42 149l42 0 0-42-42 0z m-86-213c0-12-9-21-21-21-12 0-21 9-21 21 0 12 9 21 21 21 12 0 21-9 21-21z m64 0c0-12-9-21-21-21-12 0-21 9-21 21 0 12 9 21 21 21 12 0 21-9 21-21z m64 0c0-12-9-21-21-21-12 0-21 9-21 21 0 12 9 21 21 21 12 0 21-9 21-21z m-128-64c0-12-9-21-21-21-12 0-21 9-21 21 0 12 9 21 21 21 12 0 21-9 21-21z m64 0c0-12-9-21-21-21-12 0-21 9-21 21 0 12 9 21 21 21 12 0 21-9 21-21z m64 0c0-12-9-21-21-21-12 0-21 9-21 21 0 12 9 21 21 21 12 0 21-9 21-21z"/>
<glyph glyph-name="calculator-2" unicode="&#51;" d="M448 491l-384 0c-24 0-43-19-43-43l0-384c0-24 19-43 43-43l384 0c24 0 43 19 43 43l0 384c0 24-19 43-43 43z m0-214l-171 0 0 171 171 0z m-213 171l0-171-171 0 0 171z m-171-213l171 0 0-171-171 0z m213-171l0 171 171 0 0-171z m22 320l128 0 0-43-128 0z m0-171l128 0 0-42-128 0z m0-85l128 0 0-43-128 0z m-171 171l43 0 0 42 42 0 0 43-42 0 0 43-43 0 0-43-43 0 0-43 43 0z m79-122l-30 30-28-28-27 28-30-30 27-28-27-27 30-30 27 27 28-27 30 30-27 27z"/>
<glyph glyph-name="calendar" unicode="&#52;" d="M448 448l-64 0 0 43-43 0 0-128 43 0 0 42 64 0 0-320-384 0 0 320 43 0 0 43-43 0c-24 0-43-19-43-43l0-320c0-23 19-42 43-42l384 0c24 0 43 19 43 42l0 320c0 24-19 43-43 43z m-277-43l149 0 0 43-149 0 0 43-43 0 0-128 43 0z m-64-85l85 0 0-85-85 0z m106 0l86 0 0-85-86 0z m107 0l85 0 0-85-85 0z m-213-107l85 0 0-85-85 0z m106 0l86 0 0-85-86 0z"/>
<glyph glyph-name="calendar-check" unicode="&#53;" d="M448 448l-64 0 0 43-43 0 0-128 43 0 0 42 64 0 0-320-384 0 0 320 43 0 0 43-43 0c-24 0-43-19-43-43l0-320c0-23 19-42 43-42l384 0c24 0 43 19 43 42l0 320c0 24-19 43-43 43z m-128 0l-149 0 0 43-43 0 0-128 43 0 0 42 149 0z m-85-308l-79 80 30 30 49-49 91 91 30-30z"/>
<glyph glyph-name="calendar-close" unicode="&#54;" d="M335 284l-30 30-49-49-49 49-30-30 49-49-49-49 30-30 49 48 49-48 30 30-49 49z m113 164l-64 0 0 43-43 0 0-128 43 0 0 42 64 0 0-320-384 0 0 320 43 0 0 43-43 0c-24 0-43-19-43-43l0-320c0-23 19-42 43-42l384 0c24 0 43 19 43 42l0 320c0 24-19 43-43 43z m-128 0l-149 0 0 43-43 0 0-128 43 0 0 42 149 0z"/>
<glyph glyph-name="calendar-pencil" unicode="&#55;" d="M195 197l45-45-67-23z m158 68c13 13 13 33 0 46-12 12-32 12-45 0l-83-83 45-46z m95 183l-64 0 0 43-43 0 0-128 43 0 0 42 64 0 0-320-384 0 0 320 43 0 0 43-43 0c-24 0-43-19-43-43l0-320c0-23 19-42 43-42l384 0c24 0 43 19 43 42l0 320c0 24-19 43-43 43z m-128 0l-149 0 0 43-43 0 0-128 43 0 0 42 149 0z"/>
<glyph glyph-name="calendar-refresh-2" unicode="&#56;" d="M335 292c-20 22-47 36-79 36-59 0-107-48-107-107 0-59 48-106 107-106 49 0 89 32 102 77l-45 0c-11-21-32-35-57-35-35 0-64 29-64 64 0 36 29 64 64 64 17 0 33-7 44-18l-44-32 107 0 0 77z m113 156l-64 0 0 43-43 0 0-128 43 0 0 42 64 0 0-320-384 0 0 320 43 0 0 43-43 0c-24 0-43-19-43-43l0-320c0-23 19-42 43-42l384 0c24 0 43 19 43 42l0 320c0 24-19 43-43 43z m-128 0l-149 0 0 43-43 0 0-128 43 0 0 42 149 0z"/>
<glyph glyph-name="camera" unicode="&#57;" d="M256 341c-59 0-107-47-107-106 0-59 48-107 107-107 59 0 107 48 107 107 0 59-48 106-107 106z m0-170c-35 0-64 28-64 64 0 35 29 64 64 64 35 0 64-29 64-64 0-36-29-64-64-64z m171 213l-74 0-30 45c-8 12-21 19-36 19l-62 0c-15 0-28-7-36-19l-30-45-74 0c-23 0-42-19-42-43l0-234c0-24 19-43 42-43l342 0c23 0 42 19 42 43l0 234c0 24-19 43-42 43z m-342-277l0 234 97 0 43 64 62 0 43-64 97 0 0-234z"/>
<glyph glyph-name="brightness-1" unicode="&#33;" d="M463 271l-58 58 0 55c0 12-9 21-21 21l-55 0-58 58c-8 8-22 8-30 0l-58-58-55 0c-12 0-21-9-21-21l0-55-58-58c-8-8-8-22 0-30l58-58 0-55c0-12 9-21 21-21l55 0 58-58c4-4 10-6 15-6 5 0 11 2 15 6l58 58 55 0c12 0 21 9 21 21l0 55 58 58c8 8 8 22 0 30z m-94-64c-4-4-6-9-6-15l0-43-43 0c-6 0-11-2-15-6l-49-49-49 49c-4 4-9 6-15 6l-43 0 0 43c0 6-2 11-6 15l-49 49 49 49c4 4 6 9 6 15l0 43 43 0c6 0 11 2 15 6l49 49 49-49c4-4 9-6 15-6l43 0 0-43c0-6 2-11 6-15l49-49z m-113 156c-12 0-21-10-21-22l0-170c0-12 9-22 21-22 59 0 107 48 107 107 0 59-48 107-107 107z m21-167l0 120c25-8 43-32 43-60 0-28-18-52-43-60z"/>
<glyph glyph-name="camera-off" unicode="&#34;" d="M149 341l103 0 42 43-145 0c-23 0-42-19-42-43l0-145 42 43z m289-3c-6 4-14 4-21 1l-54-27 0 20 100 101-30 30-375-376 30-30 71 71 161 0c24 0 43 19 43 43l0 29 54-27c3-2 6-2 10-2 4 0 7 1 11 3 6 4 10 11 10 18l0 128c0 7-4 14-10 18z m-236-167l118 118 0-118z m203 56l-42 21 0 16 42 21z"/>
<glyph glyph-name="camera-pin" unicode="&#35;" d="M256 363c-47 0-85-39-85-86 0-47 38-85 85-85 47 0 85 38 85 85 0 47-38 86-85 86z m0-128c-24 0-43 19-43 42 0 24 19 43 43 43 24 0 43-19 43-43 0-23-19-42-43-42z m171 170l-74 0-30 45c-8 12-21 19-36 19l-62 0c-15 0-28-7-36-19l-30-45-74 0c-23 0-42-19-42-42l0-192c0-24 19-43 42-43l96 0 58-77c4-5 10-8 17-8 7 0 13 3 17 8l58 77 96 0c23 0 42 19 42 43l0 192c0 23-19 42-42 42z m0-234l-107 0c-7 0-13-3-17-9l-47-62-47 62c-4 6-10 9-17 9l-107 0 0 192 86 0c7 0 13 3 17 9l37 55 62 0 37-55c4-6 10-9 17-9l86 0z"/>
<glyph glyph-name="camera-refresh" unicode="&#36;" d="M472 347c-35 84-119 144-216 144-122 0-223-94-234-214l43 0c11 96 92 171 191 171 85 0 158-56 183-133l-55-51 128 0 0 120z m-131-176c12 0 22 1 22 13l0 107c0 12-10 29-22 29l-8 0c-8 0-15 3-19 10l-9 17c-4 7-11 16-20 16l-59 0c-8 0-15-7-19-14l-9-21c-4-7-11-8-19-8l-8 0c-12 0-22-17-22-29l0-107c0-12 10-13 22-13z m-85 120c24 0 43-19 43-43 0-23-19-43-43-43-24 0-43 20-43 43 0 24 19 43 43 43z m0-227c-80 0-148 49-177 118l49 53-128 0 0-136 47 50c39-76 118-128 209-128 122 0 223 94 234 214l-43 0c-11-96-92-171-191-171z"/>
<glyph glyph-name="car-6" unicode="&#37;" d="M469 256l-10 0-58 77c-4 5-10 8-17 8l-213 0c-8 0-16-4-19-11l-37-74-30 0c-47 0-85-38-85-85l0-43c0-12 10-21 21-21l47 0c9-25 32-43 60-43 28 0 51 18 60 43l157 0c9-25 33-43 60-43 28 0 52 18 60 43l26 0c11 0 21 9 21 21l0 85c0 24-19 43-43 43z m-64 0l-85 0 0 43 53 0z m-221 43l93 0 0-43-114 0z m-56-192c-12 0-21 9-21 21 0 12 9 21 21 21 12 0 21-9 21-21 0-12-9-21-21-21z m277 0c-11 0-21 9-21 21 0 12 10 21 21 21 12 0 22-9 22-21 0-12-10-21-22-21z m64 42l-4 0c-8 25-32 43-60 43-27 0-51-18-60-43l-157 0c-9 25-32 43-60 43-28 0-51-18-60-43l-25 0 0 22c0 23 19 42 42 42l384 0z"/>
<glyph glyph-name="dashboard" unicode="&#38;" d="M256 469c-118 0-213-95-213-213 0-118 95-213 213-213 118 0 213 95 213 213 0 118-95 213-213 213z m0-42c94 0 171-77 171-171 0-36-11-69-30-97-36 18-74 28-114 31l15 106-42 6-16-111c-43-2-86-13-125-32-19 28-30 61-30 97 0 94 77 171 171 171z m-110-301c69 30 151 30 220 0-29-25-68-41-110-41-42 0-81 16-110 41z m131 258c0-12-9-21-21-21-12 0-21 9-21 21 0 12 9 21 21 21 12 0 21-9 21-21z m91-38c0-11-10-21-22-21-11 0-21 10-21 21 0 12 10 22 21 22 12 0 22-10 22-22z m37-90c0-12-9-21-21-21-12 0-21 9-21 21 0 12 9 21 21 21 12 0 21-9 21-21z m-218 90c0-11-10-21-21-21-12 0-22 10-22 21 0 12 10 22 22 22 11 0 21-10 21-22z m-38-90c0-12-9-21-21-21-12 0-21 9-21 21 0 12 9 21 21 21 12 0 21-9 21-21z"/>
<glyph glyph-name="tape" unicode="&#39;" d="M427 363l-342 0c-23 0-42-19-42-43l0-192c0-24 19-43 42-43l342 0c23 0 42 19 42 43l0 192c0 24-19 43-42 43z m-216-235l14 21 62 0 15-21z m142 0l-43 64-108 0-43-64-74 0 0 192 342 0 0-192z m-161 107c0-24-19-43-43-43-23 0-42 19-42 43 0 23 19 42 42 42 24 0 43-19 43-42z m213 0c0-24-19-43-42-43-24 0-43 19-43 43 0 23 19 42 43 42 23 0 42-19 42-42z m-192 42l86 0 0-42-86 0z"/>
<glyph glyph-name="center-point" unicode="&#40;" d="M149 64l43 0 0 128-128 0 0-43 55 0-113-113 30-30 113 113z m327 442l-113-113 0 55-43 0 0-128 128 0 0 43-55 0 113 113z m-28-357l0 43-128 0 0-128 43 0 0 55 113-113 30 30-113 113z m-384 171l128 0 0 128-43 0 0-55-113 113-30-30 113-113-55 0z m192-149c47 0 85 38 85 85 0 47-38 85-85 85-47 0-85-38-85-85 0-47 38-85 85-85z m0 128c24 0 43-19 43-43 0-24-19-43-43-43-24 0-43 19-43 43 0 24 19 43 43 43z"/>
<glyph glyph-name="chat-bubble-circle" unicode="&#41;" d="M256 64l-213 0c-9 0-17 5-20 13-3 8-2 17 4 23l49 53c-22 31-33 66-33 103 0 106 95 192 213 192 118 0 213-86 213-192 0-106-95-192-213-192z m-164 43l164 0c94 0 171 67 171 149 0 82-77 149-171 149-94 0-171-67-171-149 0-33 12-64 35-90 7-9 7-21 0-29z"/>
<glyph glyph-name="chat-bubble-circle-active" unicode="&#42;" d="M256 64l-213 0c-9 0-17 5-20 13-3 8-2 17 4 23l49 53c-22 31-33 66-33 103 0 106 95 192 213 192 118 0 213-86 213-192 0-106-95-192-213-192z m-164 43l164 0c94 0 171 67 171 149 0 82-77 149-171 149-94 0-171-67-171-149 0-33 12-64 35-90 7-9 7-21 0-29z m100 149c0-12-10-21-21-21-12 0-22 9-22 21 0 12 10 21 22 21 11 0 21-9 21-21z m85 0c0-12-9-21-21-21-12 0-21 9-21 21 0 12 9 21 21 21 12 0 21-9 21-21z m86 0c0-12-10-21-22-21-11 0-21 9-21 21 0 12 10 21 21 21 12 0 22-9 22-21z"/>
<glyph glyph-name="chat-bubble-square" unicode="&#43;" d="M128 43l0 85-43 0c-23 0-42 19-42 43l0 256c0 23 19 42 42 42l342 0c23 0 42-19 42-42l0-256c0-24-19-43-42-43l-185 0z m-43 384l0-256 86 0 0-43 57 43 199 0 0 256z"/>
<glyph glyph-name="chat-bubble-square-active" unicode="&#44;" d="M128 43l0 85-43 0c-23 0-42 19-42 43l0 256c0 23 19 42 42 42l342 0c23 0 42-19 42-42l0-256c0-24-19-43-42-43l-185 0z m-43 384l0-256 86 0 0-43 57 43 199 0 0 256z m91-128c0-15-12-27-27-27-14 0-26 12-26 27 0 14 12 26 26 26 15 0 27-12 27-26z m107 0c0-15-12-27-27-27-15 0-27 12-27 27 0 14 12 26 27 26 15 0 27-12 27-26z m106 0c0-15-12-27-26-27-15 0-27 12-27 27 0 14 12 26 27 26 14 0 26-12 26-26z"/>
<glyph glyph-name="chat-bubble-square-2" unicode="&#45;" d="M128 43l0 85-43 0c-23 0-42 19-42 43l0 256c0 23 19 42 42 42l342 0c23 0 42-19 42-42l0-256c0-24-19-43-42-43l-185 0z m-43 384l0-256 86 0 0-43 57 43 199 0 0 256z m43-43l256 0 0-43-256 0z m0-64l256 0 0-43-256 0z m0-64l171 0 0-43-171 0z"/>
<glyph glyph-name="chat-bubbles-square" unicode="&#46;" d="M448 0l-114 85-67 0c-18 0-32 15-32 32l0 150c0 17 14 32 32 32l213 0c18 0 32-15 32-32l0-150c0-17-14-32-32-32l-32 0z m-171 128l71 0 57-43 0 43 64 0 0 128-192 0z m-213-43l0 86-32 0c-18 0-32 14-32 32l0 234c0 18 14 32 32 32l277 0c18 0 32-14 32-32l0-96-42 0 0 86-256 0 0-214 64 0 0-42 57 42 28 0 0-42-14 0z"/>
<glyph glyph-name="check-box" unicode="&#47;" d="M385 43l-299 0c-23 0-42 19-42 42l0 256c0 24 19 43 42 43l214 0 0-43-214 0 0-256 299 0 0 107 43 0 0-107c0-23-20-42-43-42z m-149 89l-105 105 38 38 66-66 194 214 40-36z"/>
<glyph glyph-name="close" unicode="&#58;" d="M443 412l-31 30-155-156-156 156-30-30 156-156-156-156 30-30 156 156 155-156 31 30-156 156z"/>
<glyph glyph-name="cloud" unicode="&#59;" d="M320 107l-171 0c-58 0-106 48-106 106 0 59 48 107 106 107 12 0 23-2 34-5 23 54 76 90 137 90 82 0 149-67 149-149 0-82-67-149-149-149z m-171 170c-35 0-64-28-64-64 0-35 29-64 64-64l171 0c59 0 107 48 107 107 0 59-48 107-107 107-50 0-93-34-104-83-1-7-6-12-13-15-6-2-13-2-19 2-11 7-23 10-35 10z"/>
<glyph glyph-name="cloud-disable" unicode="&#60;" d="M81 132l30 30c-15 12-26 30-26 51 0 36 29 64 64 64 12 0 24-3 35-10 6-4 13-4 19-2 7 3 12 8 13 15 11 46 49 78 94 82l40 40c-9 2-20 3-30 3-61 0-114-36-137-90-11 3-22 5-34 5-58 0-106-48-106-107 0-32 15-61 38-81z m371 312l-384-384 31-31 77 78 144 0c82 0 149 67 149 149 0 40-15 76-41 103l55 54z m-132-295l-102 0 180 180c18-20 29-45 29-73 0-59-48-107-107-107z"/>
<glyph glyph-name="cloud-download" unicode="&#61;" d="M320 469c-61 0-114-36-137-90-11 3-22 5-34 5-58 0-106-48-106-107 0-59 48-106 106-106l43 0 0 42-43 0c-35 0-64 29-64 64 0 36 29 64 64 64 12 0 24-3 35-10 6-4 13-4 19-2 7 3 12 8 13 15 11 49 54 83 104 83 59 0 107-48 107-107 0-59-48-107-107-107l0-42c82 0 149 67 149 149 0 82-67 149-149 149z m6-326l-49-49 0 183-42 0 0-183-49 49-30-30 100-101 100 101z"/>
<glyph glyph-name="cloud-refresh" unicode="&#62;" d="M213 256l-106 0c-36 0-64 29-64 64 0 35 28 64 64 64 12 0 24-4 34-10 6-4 13-5 20-2 6 3 11 8 13 15 11 48 54 82 103 82 59 0 107-48 107-106 0-24-8-46-22-64l50 0c9 19 15 41 15 64 0 82-67 149-150 149-61 0-114-36-137-91-11 4-22 6-33 6-59 0-107-48-107-107 0-59 48-107 107-107l106 0z m171-213c-23 0-44 9-60 25l39 39-107 0 0-107 38 38c23-24 56-38 90-38 71 0 128 57 128 128l-43 0c0-47-38-85-85-85z m90 175c-23 24-55 38-90 38-71 0-128-57-128-128l43 0c0 47 38 85 85 85 23 0 44-9 60-25l-39-39 107 0 0 107z"/>
<glyph glyph-name="cloud-upload" unicode="&#63;" d="M320 469c-61 0-114-36-137-90-11 3-22 5-34 5-58 0-106-48-106-107 0-51 36-94 85-104l0 44c-25 9-43 33-43 60 0 36 29 64 64 64 12 0 24-3 35-10 6-4 13-4 19-2 7 3 12 8 13 15 11 49 54 83 104 83 59 0 107-48 107-107 0-35-17-65-43-85l0-50c50 24 85 76 85 135 0 82-67 149-149 149z m36-262l-100 100-100-100 30-30 49 49 0-183 42 0 0 183 49-49z"/>
<glyph glyph-name="cloud-wifi" unicode="&#64;" d="M320 0l-171 0c-58 0-106 48-106 107 0 58 48 106 106 106 12 0 23-2 34-5 23 54 76 91 137 91 82 0 149-67 149-150 0-82-67-149-149-149z m-171 171c-35 0-64-29-64-64 0-36 29-64 64-64l171 0c59 0 107 47 107 106 0 59-48 107-107 107-50 0-93-34-104-83-1-6-6-12-13-14-6-3-13-2-19 1-11 7-23 11-35 11z m197 175c-24 25-56 38-90 38l0 0c-34 0-66-13-91-38l-30 31c33 32 75 50 121 50l0 0c46 0 88-18 121-50z m61 61c-83 83-219 83-302 0l-30 30c100 100 262 100 362 0z"/>
<glyph glyph-name="color-contrast-off" unicode="&#91;" d="M484 422l-30 30-394-394 30-30 60 59c27-27 65-44 106-44 82 0 149 67 149 149 0 28-16 70-38 112z m-228-337c-30 0-56 13-76 33l155 155c17-34 28-63 28-81 0-59-48-107-107-107z m-104 125c12 48 63 137 104 200 12-18 25-39 37-59l31 31c-30 49-53 81-68 104-41-60-149-221-149-294 0-9 1-17 2-25z"/>
<glyph glyph-name="color-contrast-on" unicode="&#93;" d="M256 43c-82 0-149 67-149 149 0 74 108 235 149 294 41-60 149-221 149-294 0-82-67-149-149-149z m0 367c-47-72-107-177-107-218 0-59 48-107 107-107 59 0 107 48 107 107 0 41-60 146-107 218z"/>
<glyph glyph-name="color-palette" unicode="&#94;" d="M462 363c-1 12-5 22-14 30l-49 46c-16 16-45 15-60-1l-62-65 0-62 93 97 49-46-142-150 0-62 173 183c8 8 12 19 12 30z m-249 106l-128 0c-23 0-42-19-42-42l0-342c0-23 19-42 42-42l128 0c24 0 43 19 43 42l0 342c0 23-19 42-43 42z m-128-384l0 342 128 0 0-342z m22 299l85 0 0-85-85 0z m0-128l85 0 0-85-85 0z m64-128c0-12-10-21-22-21-11 0-21 9-21 21 0 12 10 21 21 21 12 0 22-9 22-21z m317 1l-7 67c-2 11-7 22-16 29-9 7-20 10-32 9l-50-6 5-42 50 5 8-67-169-19 0-43 174 20c11 1 21 7 28 16 8 9 11 20 9 31z"/>
<glyph glyph-name="computer-screen" unicode="&#95;" d="M469 448l-426 0c-24 0-43-19-43-43l0-277c0-24 19-43 43-43l192 0 0-42-86 0 0-43 214 0 0 43-86 0 0 42 192 0c24 0 43 19 43 43l0 277c0 24-19 43-43 43z m0-43l0-213-426 0 0 213z m-426-277l0 21 426 0 0-21z"/>
<glyph glyph-name="contact-book" unicode="&#96;" d="M213 171c0 39 25 64 64 64 40 0 64-25 64-64z m107 128c0-24-19-43-43-43-23 0-42 19-42 43 0 23 19 42 42 42 24 0 43-19 43-42z m85 170l-256 0c-23 0-42-19-42-42l0-43-43 0 0-43 43 0 0-64-43 0 0-42 43 0 0-64-43 0 0-43 43 0 0-43c0-23 19-42 42-42l256 0c24 0 43 19 43 42l0 342c0 23-19 42-43 42z m-256-384l0 43 22 0 0 43-22 0 0 64 22 0 0 42-22 0 0 64 22 0 0 43-22 0 0 43 256 0 0-342z"/>
<glyph glyph-name="content-book" unicode="&#123;" d="M448 427l-149 0c-6 0-11-3-15-7l-28-27-28 27c-4 4-9 7-15 7l-149 0c-12 0-21-10-21-22l0-277c0-12 9-21 21-21l141 0 36-37c4-4 10-6 15-6 5 0 11 2 15 6l37 37 140 0c12 0 21 9 21 21l0 277c0 12-9 22-21 22z m-235-278l-128 0 0 235 120 0 30-30 0-217-7 6c-4 4-9 6-15 6z m214 0l-128 0c-6 0-11-2-15-6l-7-6 0 217 31 30 119 0z"/>
<glyph glyph-name="content-bookmark" unicode="&#124;" d="M448 427l-21 0 0-278-128 0c-6 0-11-2-15-6l-7-6 0 217 22 21 0 52c-6 0-11-3-15-7l-28-27-28 27c-4 4-9 7-15 7l-149 0c-12 0-21-10-21-22l0-277c0-12 9-21 21-21l141 0 36-37c4-4 10-6 15-6 5 0 11 2 15 6l37 37 140 0c12 0 21 9 21 21l0 277c0 12-9 22-21 22z m-213-290l-7 6c-4 4-9 6-15 6l-128 0 0 235 120 0 30-30z m170 119l-42 43-43-43 0 213 85 0z"/>
<glyph glyph-name="filter" unicode="&#125;" d="M384 469l-256 0c-24 0-43-19-43-42l0-86c0-5 2-11 7-15l100-100 0-162c0-9 5-16 13-20 3-1 6-1 8-1 6 0 11 2 15 6l86 85c4 4 6 10 6 15l0 77 100 100c5 4 7 10 7 15l0 86c0 23-19 42-43 42z m-100-219c-4-4-7-10-7-15l0-77-42-43 0 120c0 5-3 11-7 15l-100 100 0 77 256 0 0-77z"/>
<glyph glyph-name="layers-hide" unicode="&#126;" d="M55 332l122-54 33 32-93 41 139 62 39-17 33 32-63 28c-6 3-12 3-18 0l-192-85c-7-4-12-11-12-20 0-8 5-16 12-19z m93-83l-105 44 0-47 73-30z m85-36l35 35 189 84c7 3 12 11 12 19 0 9-5 16-12 20l-46 20 52 52-30 30-384-384 30-30 62 61 107-44c2-2 5-2 8-2 3 0 6 1 9 2l204 93 0 47-213-97-83 34 28 27 47-19c2-1 5-2 8-2 3 0 6 1 9 2l204 93 0 47-213-97z m146 146l16-8-43-19z m-291-171l-45 19 0-46 12-5z"/>
<glyph glyph-name="layers-show" unicode="&#92;" d="M256 245c-3 0-6 0-9 1l-192 86c-7 3-12 11-12 19 0 9 5 16 12 20l192 85c6 3 12 3 18 0l192-85c7-4 12-11 12-20 0-8-5-16-12-19l-192-86c-3-1-6-1-9-1z m-139 106l139-62 139 62-139 62z m352-50l-213-97-213 89 0-47 205-85c2-1 5-2 8-2 3 0 6 1 9 2l204 93z m0-85l-213-97-213 88 0-46 205-85c2-2 5-2 8-2 3 0 6 1 9 2l204 93z"/>
<glyph glyph-name="note" unicode="&#57344;" d="M405 448l-298 0c-24 0-43-19-43-43l0-298c0-24 19-43 43-43l149 0c17 0 39 9 52 21l119 119c12 13 21 34 21 52l0 149c0 24-19 43-43 43z m-298-341l0 298 298 0 0-149-85 0c-35 0-64-29-64-64l0-85z m192 30l0 55c0 12 9 21 21 21l55 0z"/>
<glyph glyph-name="content-view-array" unicode="&#57345;" d="M352 64l-192 0c-18 0-32 14-32 32l0 320c0 18 14 32 32 32l192 0c18 0 32-14 32-32l0-320c0-18-14-32-32-32z m-181 43l170 0 0 298-170 0z m-64 0l-22 0c-23 0-42 19-42 42l0 214c0 23 19 42 42 42l22 0 0-42-22 0 0-214 22 0z m320 0l-22 0 0 42 22 0 0 214-22 0 0 42 22 0c23 0 42-19 42-42l0-214c0-23-19-42-42-42z"/>
<glyph glyph-name="content-view-content" unicode="&#57346;" d="M192 277l-107 0c-23 0-42 19-42 43l0 107c0 23 19 42 42 42l107 0c24 0 43-19 43-42l0-107c0-24-19-43-43-43z m-107 150l0-107 107 0 0 107z m107-384l-107 0c-23 0-42 19-42 42l0 107c0 24 19 43 42 43l107 0c24 0 43-19 43-43l0-107c0-23-19-42-43-42z m-107 149l0-107 107 0 0 107z m171 235l213 0 0-43-213 0z m0-64l213 0 0-43-213 0z m0-171l213 0 0-43-213 0z m0-64l213 0 0-43-213 0z"/>
<glyph glyph-name="content-view-list" unicode="&#57347;" d="M427 341l-192 0c-24 0-43 19-43 43l0 43c0 23 19 42 43 42l192 0c23 0 42-19 42-42l0-43c0-24-19-43-42-43z m-192 86l0-43 192 0 0 43z m192-235l-192 0c-24 0-43 19-43 43l0 42c0 24 19 43 43 43l192 0c23 0 42-19 42-43l0-42c0-24-19-43-42-43z m-192 85l0-42 192 0 0 42z m192-234l-192 0c-24 0-43 19-43 42l0 43c0 24 19 43 43 43l192 0c23 0 42-19 42-43l0-43c0-23-19-42-42-42z m-192 85l0-43 192 0 0 43z m-107 213l-43 0c-23 0-42 19-42 43l0 43c0 23 19 42 42 42l43 0c24 0 43-19 43-42l0-43c0-24-19-43-43-43z m-43 86l0-43 43 0 0 43z m43-235l-43 0c-23 0-42 19-42 43l0 42c0 24 19 43 42 43l43 0c24 0 43-19 43-43l0-42c0-24-19-43-43-43z m-43 85l0-42 43 0 0 42z m43-234l-43 0c-23 0-42 19-42 42l0 43c0 24 19 43 42 43l43 0c24 0 43-19 43-43l0-43c0-23-19-42-43-42z m-43 85l0-43 43 0 0 43z"/>
<glyph glyph-name="content-view-module" unicode="&#57348;" d="M192 277l-107 0c-23 0-42 19-42 43l0 107c0 23 19 42 42 42l107 0c24 0 43-19 43-42l0-107c0-24-19-43-43-43z m-107 150l0-107 107 0 0 107z m342-150l-107 0c-24 0-43 19-43 43l0 107c0 23 19 42 43 42l107 0c23 0 42-19 42-42l0-107c0-24-19-43-42-43z m-107 150l0-107 107 0 0 107z m-128-384l-107 0c-23 0-42 19-42 42l0 107c0 23 19 43 42 43l107 0c24 0 43-20 43-43l0-107c0-23-19-42-43-42z m-107 149l0-107 107 0 0 107z m342-149l-107 0c-24 0-43 19-43 42l0 107c0 23 19 43 43 43l107 0c23 0 42-20 42-43l0-107c0-23-19-42-42-42z m-107 149l0-107 107 0 0 107z"/>
<glyph glyph-name="crop" unicode="&#57349;" d="M192 192l0 107-43 0 0-150 299 0 0 43z m128 21l43 0 0 150-299 0 0-43 256 0z m-171 256l43 0 0-85-43 0z m171-341l43 0 0-85-43 0z"/>
<glyph glyph-name="cursor-arrow" unicode="&#57350;" d="M420 122l-112 113 70 70c5 5 7 13 5 20-1 7-7 13-14 15l-256 86c-7 2-16 0-21-6-6-5-8-14-6-21l86-256c2-7 8-13 15-14 2-1 3-1 5-1 6 0 11 2 15 6l70 70 113-112z m-219 67l-61 183 183-61z"/>
<glyph glyph-name="cursor-hand" unicode="&#57351;" d="M412 340l-49 17 0 91c0 12-10 21-22 21l-42 0c0 12-10 22-22 22l-64 0c-11 0-21-10-21-22l-43 0c-11 0-21-9-21-21l0-107-43 0c-11 0-21-9-21-21l0-107c0-4 1-8 4-12l85-128c4-5 11-9 18-9l170 0c8 0 15 4 19 10l64 107c2 3 3 7 3 11l0 128c0 9-6 17-15 20z m-28-142l-55-91-147 0-75 113 0 79 21 0 0-64 43 0 0 192 21 0 0-171 43 0 0 192 21 0 0-192 43 0 0 171 21 0 0-192 43 0 0 77 21-7z"/>
<glyph glyph-name="cursor-move" unicode="&#57352;" d="M384 350l-30-30 43-43-120 0 0 119 43-42 30 30-94 94-94-94 30-30 43 42 0-119-119 0 42 43-30 30-94-94 94-94 30 30-42 43 119 0 0-120-43 43-30-30 94-94 94 94-30 30-43-43 0 120 120 0-43-43 30-30 94 94z"/>
<glyph glyph-name="cursor-select-area" unicode="&#57353;" d="M478 64l-68 68 30 31c5 4 3 9-2 11l-129 36c-6 2-9-1-7-7l36-129c2-5 7-7 11-2l31 30 68-68z m-435 384l0-64 42 0 0 43 43 0 0 42-64 0c-12 0-21-9-21-21z m42-235l-42 0 0-64c0-11 9-21 21-21l64 0 0 43-43 0z m86 256l85 0 0-42-85 0z m-128-128l42 0 0-85-42 0z m298 43l43 0 0 64c0 12-10 21-21 21l-64 0 0-42 42 0z m0-43l43 0 0-85-43 0z m-170-170l85 0 0-43-85 0z"/>
<glyph glyph-name="cursor-tap" unicode="&#57354;" d="M363 43l-150 0c-8 0-15 4-19 11l-64 128c-3 7-3 15 1 21 4 6 11 10 18 10l43 0 0 128c0 7 3 14 9 18 5 4 13 5 19 3l64-22c9-3 15-11 15-20l0-90 69-17c9-3 16-11 16-21l0-128c0-12-10-21-21-21z m-136 42l114 0 0 90-69 18c-9 2-16 11-16 20l0 92-21 7 0-120c0-12-10-21-22-21l-29 0z m-142 256l64 0 0-42-64 0z m59 100l45-46-30-30-45 45z m69 28l43 0 0-64-43 0z m142-59l-45-45-30 30 45 46z m-35-69l64 0 0-42-64 0z"/>
<glyph glyph-name="cursor-target" unicode="&#57355;" d="M491 277l-66 0c-9 77-71 138-148 148l0 66-42 0 0-66c-77-10-139-71-148-148l-66 0 0-42 66 0c9-77 71-139 148-148l0-66 42 0 0 66c77 9 139 71 148 148l66 0z m-214-147l0 83-42 0 0-83c-54 9-96 51-105 105l83 0 0 42-83 0c9 54 51 96 105 105l0-83 42 0 0 83c54-9 96-51 105-105l-83 0 0-42 83 0c-9-54-51-96-105-105z"/>
<glyph glyph-name="data-download" unicode="&#57356;" d="M378 284l-30 30-71-71 0 226-42 0 0-226-71 71-30-30 122-122z m6-156l0-43-256 0 0 43-43 0 0-43c0-23 19-42 43-42l256 0c24 0 43 19 43 42l0 43z"/>
<glyph glyph-name="data-syncing" unicode="&#57357;" d="M171 341l162 0-49-49 30-30 85 86c8 8 8 21 0 30l-85 85-30-30 49-49-162 0c-71 0-128-57-128-128l42 0c0 47 39 85 86 85z m256-85c0-47-39-85-86-85l-161 0 48 49-30 30-85-86c-8-8-8-21 0-30l85-85 30 30-48 49 161 0c71 0 128 57 128 128z"/>
<glyph glyph-name="data-transfer" unicode="&#57358;" d="M326 271l30-30 101 100-101 101-30-30 49-49-247 0 0-43 247 0z m-140-30l-30 30-101-100 101-101 30 30-49 49 247 0 0 43-247 0z"/>
<glyph glyph-name="data-upload" unicode="&#57359;" d="M235 375l0-204 42 0 0 204 71-70 30 30-122 122-122-122 30-30z m149-247l0-43-256 0 0 43-43 0 0-43c0-23 19-42 43-42l256 0c24 0 43 19 43 42l0 43z"/>
<glyph glyph-name="delete" unicode="&#57360;" d="M407 407c-40 40-94 62-151 62-57 0-110-22-151-62-40-40-62-94-62-151 0-57 22-111 62-151 41-40 94-62 151-62 57 0 111 22 151 62 83 83 83 219 0 302z m-16-256l-105 105 105 105c47-62 47-148 0-210z m-30 240l-105-105-104 105c29 23 66 36 104 36 39 0 75-13 105-36z m-276-135c0 38 13 75 36 105l105-105-105-105c-23 30-36 67-36 105z m67-135l104 105 105-105c-30-23-67-36-105-36-38 0-75 13-104 36z"/>
<glyph glyph-name="dial-pad" unicode="&#57361;" d="M128 341l-107 0c-11 0-21 10-21 22l0 106c0 12 10 22 21 22l107 0c12 0 21-10 21-22l0-106c0-12-9-22-21-22z m-85 43l64 0 0 64-64 0z m256-43l-107 0c-12 0-21 10-21 22l0 106c0 12 9 22 21 22l107 0c11 0 21-10 21-22l0-106c0-12-10-22-21-22z m-86 43l64 0 0 64-64 0z m256-43l-106 0c-12 0-22 10-22 22l0 106c0 12 10 22 22 22l106 0c12 0 22-10 22-22l0-106c0-12-10-22-22-22z m-85 43l64 0 0 64-64 0z m-256-213l-107 0c-11 0-21 9-21 21l0 107c0 11 10 21 21 21l107 0c12 0 21-10 21-21l0-107c0-12-9-21-21-21z m-85 42l64 0 0 64-64 0z m256-42l-107 0c-12 0-21 9-21 21l0 107c0 11 9 21 21 21l107 0c11 0 21-10 21-21l0-107c0-12-10-21-21-21z m-86 42l64 0 0 64-64 0z m86-213l-107 0c-12 0-21 10-21 21l0 107c0 12 9 21 21 21l107 0c11 0 21-9 21-21l0-107c0-11-10-21-21-21z m-86 43l64 0 0 64-64 0z m256 128l-106 0c-12 0-22 9-22 21l0 107c0 11 10 21 22 21l106 0c12 0 22-10 22-21l0-107c0-12-10-21-22-21z m-85 42l64 0 0 64-64 0z"/>
<glyph glyph-name="diamond" unicode="&#57362;" d="M467 309l-86 150c-4 6-11 10-18 10l-214 0c-7 0-14-4-18-10l-86-150c-4-7-3-17 3-24l192-235c4-4 10-7 16-7 6 0 12 3 16 7l192 235c6 7 7 17 3 24z m-243 11l32 74 32-74z m68-43l-36-132-36 132z m-4 150l46 0-18-65z m-92-65l-18 65 46 0z m-32-42l-63 0 42 73z m12-43l33-122-100 122z m160 0l67 0-100-122z m12 43l21 73 42-73z"/>
<glyph glyph-name="divide" unicode="&#57363;" d="M85 427l192 0 0-43 43 0 0 43c0 23-19 42-43 42l-192 0c-23 0-42-19-42-42l0-192c0-24 19-43 42-43l43 0 0 43-43 0z m342-107l-43 0 0-43 43 0 0-192-192 0 0 43-43 0 0-43c0-23 19-42 43-42l192 0c23 0 42 19 42 42l0 192c0 24-19 43-42 43z m-86 21l-170 0 0-170 170 0z m-42-128l-86 0 0 86 86 0z"/>
<glyph glyph-name="email" unicode="&#57364;" d="M427 363l-342 0c-23 0-42-19-42-43l0-192c0-24 19-43 42-43l342 0c23 0 42 19 42 43l0 192c0 24-19 43-42 43z m-41-43l-130-81-130 81z m-301-192l0 167 160-100c3-2 7-3 11-3 4 0 8 1 11 3l160 100 0-167z"/>
<glyph glyph-name="email-read" unicode="&#57365;" d="M296 443c-23 18-56 19-81 0l-172-156 0-202c0-23 19-42 42-42l342 0c23 0 42 19 42 42l0 202z m-53-33c7 6 20 5 25 1l145-131-99-67-116 0-99 67z m-158-325l0 152 101-66 140 0 101 66 0-152z"/>
<glyph glyph-name="envelope" unicode="&#57366;" d="M469 85l-426 0c-24 0-43 19-43 43l0 235c0 23 19 42 43 42l426 0c24 0 43-19 43-42l0-235c0-24-19-43-43-43z m-426 278l0-235 426 0 0 235z m42-86l171 0 0-42-171 0z m0-64l171 0 0-42-171 0z m256 128l86 0 0-85-86 0z"/>
<glyph glyph-name="equaliser" unicode="&#57367;" d="M43 107l106 0 0-64-106 0z m149 0l107 0 0-64-107 0z m149 0l107 0 0-64-107 0z m-298 106l106 0 0-64-106 0z m149 0l107 0 0-64-107 0z m149 0l107 0 0-64-107 0z m-298 107l106 0 0-64-106 0z m149 0l107 0 0-64-107 0z m0 107l107 0 0-64-107 0z"/>
<glyph glyph-name="eraser" unicode="&#57368;" d="M457 333l-106 106c-16 16-44 16-60 0l-257-257c-16-17-16-44 0-60l37-37 199 0 187 188c8 8 12 18 12 30 0 11-4 22-12 30z m-205-205l-163 0-24 24 102 102 106-105z m51 51l-106 106 124 123 106-105z"/>
<glyph glyph-name="expand" unicode="&#57369;" d="M43 277l42 0 0-42-42 0z m64 0l42 0 0-42-42 0z m64 0l42 0 0-42-42 0z m64 0l42 0 0-42-42 0z m0-64l42 0 0-42-42 0z m-192 0l42 0 0-42-42 0z m0-64l42 0 0-42-42 0z m0-64l42 0 0-42-42 0z m64 0l42 0 0-42-42 0z m64 0l42 0 0-42-42 0z m64 0l42 0 0-42-42 0z m0 64l42 0 0-42-42 0z m85 320l0-42 77 0-92-92 30-30 92 91 0-76 42 0 0 149z m-192-42l0-107 43 0 0 107 106 0 0 42-106 0c-24 0-43-19-43-42z m299-256l-107 0 0-43 107 0c23 0 42 19 42 43l0 106-42 0z"/>
<glyph glyph-name="expand-2" unicode="&#57370;" d="M314 284l113 112 0-55 42 0 0 128-128 0 0-42 56 0-113-113z m-143-199l-55 0 112 113-30 30-113-113 0 56-42 0 0-128 128 0z m-86 311l113-112 30 30-112 113 55 0 0 42-128 0 0-128 42 0z m256-311l0-42 128 0 0 128-42 0 0-56-113 113-30-30 113-113z"/>
<glyph glyph-name="expand-horizontal" unicode="&#57371;" d="M256 94l-113 113-30-30 143-143 143 143-30 30z m-143 241l30-30 113 113 113-113 30 30-143 143z"/>
<glyph glyph-name="expand-vertical" unicode="&#57372;" d="M177 399l-143-143 143-143 30 30-113 113 113 113z m128-30l113-113-113-113 30-30 143 143-143 143z"/>
<glyph glyph-name="exposure-level" unicode="&#57373;" d="M256 469c-118 0-213-95-213-213 0-118 95-213 213-213 118 0 213 95 213 213 0 118-95 213-213 213z m148-128l-160 0 47 82c48-10 89-40 113-82z m-86-85l-25-43-74 0-25 43 25 43 74 0z m-75 170l-73-127-41 71c29 32 69 53 114 56z m-141-96l68-117-79 0c-4 14-6 28-6 43 0 27 7 52 17 74z m6-159l160 0-47-82c-48 10-89 40-113 82z m161-85l73 127 41-70c-29-32-69-54-114-57z m141 96l-68 117 79 0c4-14 6-28 6-43 0-27-7-52-17-74z"/>
<glyph glyph-name="file-add" unicode="&#57374;" d="M277 299l-42 0 0-64-64 0 0-43 64 0 0-64 42 0 0 64 64 0 0 43-64 0z m73 192l-243 0c-24 0-43-19-43-43l0-384c0-24 19-43 43-43l298 0c24 0 43 19 43 43l0 329z m-243-427l0 384 213 0 0-85 85 0 0-299z"/>
<glyph glyph-name="file-copy" unicode="&#57375;" d="M350 491l-158 0c-24 0-43-19-43-43l0-299c0-23 19-42 43-42l213 0c24 0 43 19 43 42l0 244z m55-342l-213 0 0 299 128 0 0-85 85 0z m-298 256l-43 0 0-341c0-24 19-43 43-43l256 0 0 43-256 0z"/>
<glyph glyph-name="file-new" unicode="&#57376;" d="M329 469l-201 0c-24 0-43-19-43-42l0-342c0-23 19-42 43-42l256 0c24 0 43 19 43 42l0 286z m55-384l-256 0 0 342 171 0 0-86 85 0z"/>
<glyph glyph-name="file-notes-document" unicode="&#57377;" d="M149 235l214 0 0-43-214 0z m0 85l171 0 0-43-171 0z m0-171l214 0 0-42-214 0z m256 320l-42 0 0 22c0 11-10 21-22 21-11 0-21-10-21-21l0-22-43 0 0 22c0 11-9 21-21 21-12 0-21-10-21-21l0-22-43 0 0 22c0 11-10 21-21 21-12 0-22-10-22-21l0-22-42 0c-24 0-43-19-43-42l0-384c0-24 19-43 43-43l298 0c24 0 43 19 43 43l0 384c0 23-19 42-43 42z m-298-426l0 384 42 0 0-22c0-11 10-21 22-21 11 0 21 10 21 21l0 22 43 0 0-22c0-11 9-21 21-21 12 0 21 10 21 21l0 22 43 0 0-22c0-11 10-21 21-21 12 0 22 10 22 21l0 22 42 0 0-384z"/>
<glyph glyph-name="file-notes-new" unicode="&#57378;" d="M405 469l-42 0 0 22c0 11-10 21-22 21-11 0-21-10-21-21l0-22-43 0 0 22c0 11-9 21-21 21-12 0-21-10-21-21l0-22-43 0 0 22c0 11-10 21-21 21-12 0-22-10-22-21l0-22-42 0c-24 0-43-19-43-42l0-384c0-24 19-43 43-43l298 0c24 0 43 19 43 43l0 384c0 23-19 42-43 42z m-298-426l0 384 42 0 0-22c0-11 10-21 22-21 11 0 21 10 21 21l0 22 43 0 0-22c0-11 9-21 21-21 12 0 21 10 21 21l0 22 43 0 0-22c0-11 10-21 21-21 12 0 22 10 22 21l0 22 42 0 0-384z"/>
<glyph glyph-name="files" unicode="&#57379;" d="M372 512l-159 0c-23 0-42-19-42-43l0-298c0-24 19-43 42-43l214 0c23 0 42 19 42 43l0 243z m55-341l-214 0 0 298 128 0 0-85 86 0z m-278 277l-42 0 0-341c0-24 19-43 42-43l256 0 0 43-256 0z m-64-64l-42 0 0-341c0-24 19-43 42-43l256 0 0 43-256 0z"/>
<glyph glyph-name="files-thumbs" unicode="&#57380;" d="M192 512l-128 0c-24 0-43-19-43-43l0-149c0-24 19-43 43-43l128 0c24 0 43 19 43 43l0 149c0 24-19 43-43 43z m-128-192l0 149 85 0 0-42 43 0 0-107z m384 192l-128 0c-24 0-43-19-43-43l0-149c0-24 19-43 43-43l128 0c24 0 43 19 43 43l0 149c0 24-19 43-43 43z m-128-192l0 149 85 0 0-42 43 0 0-107z m-128-85l-128 0c-24 0-43-19-43-43l0-149c0-24 19-43 43-43l128 0c24 0 43 19 43 43l0 149c0 24-19 43-43 43z m-128-192l0 149 85 0 0-43 43 0 0-106z m384 192l-128 0c-24 0-43-19-43-43l0-149c0-24 19-43 43-43l128 0c24 0 43 19 43 43l0 149c0 24-19 43-43 43z m-128-192l0 149 85 0 0-43 43 0 0-106z"/>
<glyph glyph-name="flash" unicode="&#57381;" d="M235 43c-3 0-5 0-7 1-9 3-15 11-15 20l0 149-106 0c-9 0-16 5-20 12-3 8-2 17 3 23l171 213c5 7 15 10 23 7 9-3 15-11 15-20l0-149 106 0c9 0 16-5 20-12 3-8 2-17-3-23l-171-213c-4-5-10-8-16-8z m-84 213l84 0c11 0 21-10 21-21l0-110 105 131-84 0c-11 0-21 10-21 21l0 110z"/>
<glyph glyph-name="flash-off" unicode="&#57382;" d="M346 256l15 0-6-8 30-31 37 47c5 6 6 15 3 23-4 7-11 12-19 12l-102 0z m-246 185l-30-30 84-83-64-80c-5-6-6-15-2-23 3-7 11-12 19-12l107 0 0-149c0-9 5-17 14-20 2-1 5-1 7-1 6 0 13 3 17 8l79 99 81-80 30 30z m51-185l33 41 42-41z m105-131l0 100 45-44z m-18 239l18 23 0-41 43-43 0 145c0 9-6 17-14 20-9 3-18 0-24-7l-53-66z"/>
<glyph glyph-name="flip-down" unicode="&#57383;" d="M384 358l0-8-28 28-30-30 79-80 79 80-30 30-27-28 0 8c0 70-40 111-107 111l-21 0 0-42 21 0c16 0 64 0 64-69z m21-123l-128 0 0-43 128 0 0-107-298 0 0 43-43 0 0-43c0-23 19-42 43-42l298 0c24 0 43 19 43 42l0 107c0 24-19 43-43 43z m-213-64c24 0 43 19 43 42l0 214c0 23-19 42-43 42l-128 0c-24 0-43-19-43-42l0-214c0-23 19-42 43-42z m-128 256l128 0 0-214-128 0z"/>
<glyph glyph-name="flip-left" unicode="&#57384;" d="M427 469l-107 0 0-42 107 0 0-342-107 0 0-42 107 0c23 0 42 19 42 42l0 342c0 23-19 42-42 42z m-278 0l43 0 0-42-43 0z m0-384l43 0 0-42-43 0z m-106 342l0-22 42 0 0 22 22 0 0 42-22 0c-23 0-42-19-42-42z m42-320l-42 0 0-22c0-23 19-42 42-42l22 0 0 42-22 0z m-42 256l42 0 0-43-42 0z m0-171l42 0 0-43-42 0z m0 85l42 0 0-42-42 0z m320-64c0 47-39 86-86 86l-76 0 27 27-30 30-79-79 79-79 30 30-27 28 76 0c24 0 43-19 43-43z m-128 256l42 0 0-106-42 0z m0-277l42 0 0-149-42 0z"/>
<glyph glyph-name="flip-right" unicode="&#57385;" d="M85 427l107 0 0 42-107 0c-23 0-42-19-42-42l0-342c0-23 19-42 42-42l107 0 0 42-107 0z m235 42l43 0 0-42-43 0z m0-384l43 0 0-42-43 0z m107 384l-22 0 0-42 22 0 0-22 42 0 0 22c0 23-19 42-42 42z m0-384l-22 0 0-42 22 0c23 0 42 19 42 42l0 22-42 0z m0 278l42 0 0-43-42 0z m0-171l42 0 0-43-42 0z m0 85l42 0 0-42-42 0z m-143 49l27-27-76 0c-47 0-86-39-86-86l43 0c0 24 19 43 43 43l76 0-27-28 30-30 79 79-79 79z m-49 143l42 0 0-106-42 0z m0-277l42 0 0-149-42 0z"/>
<glyph glyph-name="flip-up" unicode="&#57386;" d="M358 405l-8 0 28 28-30 30-79-79 79-79 30 30-28 28 8 0c69 0 69-49 69-64l0-22 42 0 0 22c0 66-41 106-111 106z m-273 22l107 0 0-128 43 0 0 128c0 23-19 42-43 42l-107 0c-23 0-42-19-42-42l0-299c0-24 19-43 42-43l43 0 0 43-43 0z m342-171l-214 0c-23 0-42-19-42-43l0-128c0-23 19-42 42-42l214 0c23 0 42 19 42 42l0 128c0 24-19 43-42 43z m-214-171l0 128 214 0 0-128z"/>
<glyph glyph-name="focus-2" unicode="&#57387;" d="M64 405l64 0 0 43-64 0c-24 0-43-19-43-43l0-64 43 0z m384 43l-64 0 0-43 64 0 0-64 43 0 0 64c0 24-19 43-43 43z m-320-384l0 43-64 0 0 64-43 0 0-64c0-24 19-43 43-43z m320 43l-64 0 0-43 64 0c24 0 43 19 43 43l0 64-43 0z m-341 42l298 0 0 214-298 0z m42 171l214 0 0-128-214 0z"/>
<glyph glyph-name="focus-off" unicode="&#57388;" d="M427 85l-86 0 0-42 86 0c23 0 42 19 42 42l0 86-42 0z m0 384l-86 0 0-42 86 0 0-86 42 0 0 86c0 23-19 42-42 42z m-342-42l86 0 0 42-86 0c-23 0-42-19-42-42l0-86 42 0z m0-256l-42 0 0-86c0-23 19-42 42-42l86 0 0 42-86 0z m299 85c0 71-57 128-128 128-71 0-128-57-128-128 0-71 57-128 128-128 71 0 128 57 128 128z m-128 85c16 0 30-4 43-12l-116-116c-8 13-12 27-12 43 0 47 38 85 85 85z m0-170c-16 0-30 4-43 12l116 116c8-13 12-27 12-43 0-47-38-85-85-85z"/>
<glyph glyph-name="folder-new" unicode="&#57389;" d="M21 192l43 0 0-43-43 0z m0-85l43 0 0-43-43 0z m86 0l42 0 0-43-42 0z m85 0l43 0 0-43-43 0z m85 0l43 0 0-43-43 0z m86 0l42 0 0-43-42 0z m85 0l43 0 0-43-43 0z m-341 341l42 0 0-43-42 0z m-86 0l43 0 0-43-43 0z m171 0l43 0 0-43-43 0z m-171-85l43 0 0-43-43 0z m0-86l43 0 0-42-43 0z m427 0l43 0 0-42-43 0z m0-85l43 0 0-43-43 0z m-171 171l43 0 0-43-43 0z m86 0l42 0 0-43-42 0z m85 0l43 0 0-43-43 0z"/>
<glyph glyph-name="folders" unicode="&#57390;" d="M85 384l-42 0 0-277c0-24 19-43 42-43l320 0 0 43-320 0z m342 0l-107 0-35 47c-8 11-21 17-34 17l-80 0c-24 0-43-19-43-43l0-213c0-24 19-43 43-43l256 0c23 0 42 19 42 43l0 149c0 24-19 43-42 43z m-256-192l0 213 80 0 35-47c8-10 21-17 34-17l107 0 0-149z"/>
<glyph glyph-name="font-color" unicode="&#57391;" d="M64 128l0-107 384 0 0 107z m299-85l-43 64 85 0z m-150 149l-33 0 25 64 102 0 25-64-33 0 0-43 106 0 0 43-28 0-101 264c-3 8-11 13-20 13-9 0-17-5-20-13l-101-264-28 0 0-43 106 0z m43 197l35-90-70 0z"/>
<glyph glyph-name="font-size" unicode="&#57392;" d="M484 43l-101 263c-4 9-11 14-20 14-9 0-17-5-20-14l-46-118 23-81 94 0 24-64-33 0 0-43 107 0 0 43z m-156 106l35 90 34-90z m-137 262c-2 9-10 15-20 16-10 0-18-6-21-15l-123-369-27 0 0-43 107 0 0 43-35 0 22 64 137 0 18-64-36 0 0-43 107 0 0 43-26 0z m-83-262l61 183 51-183z"/>
<glyph glyph-name="format-clear" unicode="&#57393;" d="M427 469l-315 0 43-42 96 0-18-79 36-36 25 115 111 0 0-43 43 0 0 64c0 12-10 21-21 21z m-348-27l-30-30 162-163-36-164-68 0 0-42 170 0 0 42-58 0 28 128 165-164 30 30z"/>
<glyph glyph-name="frame" unicode="&#57394;" d="M427 64l-128 0 0 43 106 0 0 106 43 0 0-128c0-11-10-21-21-21z m21 235l-43 0 0 106-106 0 0 43 128 0c11 0 21-10 21-21z m-341 0l-43 0 0 128c0 11 10 21 21 21l128 0 0-43-106 0z m106-235l-128 0c-11 0-21 10-21 21l0 128 43 0 0-106 106 0z"/>
<glyph glyph-name="gradient" unicode="&#57395;" d="M448 469l-384 0c-24 0-43-19-43-42l0-342c0-23 19-42 43-42l384 0c24 0 43 19 43 42l0 342c0 23-19 42-43 42z m-384-384l0 342 384 0 0-342z m43 214l42 0 0-43-42 0z m85 0l43 0 0-43-43 0z m85 0l43 0 0-43-43 0z m86 0l42 0 0-43-42 0z m-256-86l42 0 0-42-42 0z m42 43l43 0 0-43-43 0z m86 0l42 0 0-43-42 0z m85 0l43 0 0-43-43 0z m-128-43l43 0 0-42-43 0z m85 0l43 0 0-42-43 0z m86 0l42 0 0-42-42 0z m-214-42l43 0 0-43-43 0z m86 0l42 0 0-43-42 0z m85 0l43 0 0-43-43 0z"/>
<glyph glyph-name="hash" unicode="&#57396;" d="M421 427l-45 0-29-86-104 0 28 86-45 0-28-86-91 0 0-42 77 0-29-86-91 0 0-42 77 0-28-86 45 0 28 86 104 0-28-86 45 0 28 86 92 0 0 42-77 0 28 86 91 0 0 42-77 0z m-116-214l-105 0 29 86 104 0z"/>
<glyph glyph-name="health-blood-drop" unicode="&#57397;" d="M274 460c-9 12-27 12-36 0-13-19-131-193-131-268 0-82 67-149 149-149 82 0 149 67 149 149 0 70-100 222-131 268z m-18-375c-59 0-107 48-107 107 0 41 60 146 107 218 54-83 107-179 107-218 0-59-48-107-107-107z m-19 223c-11-20-45-89-45-116 0-35 29-64 64-64l0 43c-12 0-21 9-21 21 0 11 21 59 40 97z"/>
<glyph glyph-name="hide" unicode="&#57398;" d="M487 268c-2 3-32 48-88 84l85 85-30 30-415-415 30-30 110 110c23-8 49-12 77-12 145 0 227 119 231 124l8 12z m-231-106c-15 0-29 2-42 5l40 40c6-1 11-2 17-2 36 0 64 29 64 64 0 6-1 12-2 17l35 35c36-22 62-49 74-65-23-27-89-94-186-94z m-158 10l31 31c-28 19-49 40-60 53 23 29 89 98 187 98 8 0 16 0 23-1l37 37c-19 4-39 7-60 7-146 0-228-124-231-129l-8-12 8-12c2-3 27-39 73-72z"/>
<glyph glyph-name="highlight" unicode="&#57399;" d="M469 347c0 12-4 22-12 30l-45 46c-17 16-46 15-60 1l-243-212 138-137 210 242c8 8 12 19 12 30z m-224-210l-74 73 210 182 45-46z m54-52l170 0 0-42-170 0z m-254-21l116 0 32 32-58 58z"/>
<glyph glyph-name="hourglass" unicode="&#57400;" d="M405 402l0 46c0 12-9 21-21 21l-256 0c-12 0-21-9-21-21l0-46c0-17 6-34 18-46l101-100-101-100c-12-13-18-29-18-46l0-46c0-12 9-21 21-21l256 0c12 0 21 9 21 21l0 46c0 17-6 33-18 46l-101 100 101 100c12 12 18 29 18 46z m-42-292l0-25-214 0 0 25c0 6 3 11 7 15l100 101 100-101c4-4 7-9 7-15z m0 292c0-6-3-11-7-15l-100-101-100 101c-4 4-7 9-7 15l0 25 214 0z m-171-295l64 64 64-64z"/>
<glyph glyph-name="id-card" unicode="&#57401;" d="M107 149c0 40 24 64 64 64 39 0 64-24 64-64z m106 128c0-23-19-42-42-42-24 0-43 19-43 42 0 24 19 43 43 43 23 0 42-19 42-43z m64 0l128 0 0-42-128 0z m0-85l128 0 0-43-128 0z m150 213l-111 0c-9 25-32 43-60 43-28 0-51-18-60-43l-111 0c-23 0-42-19-42-42l0-256c0-24 19-43 42-43l342 0c23 0 42 19 42 43l0 256c0 23-19 42-42 42z m-171 0c12 0 21-9 21-21 0-12-9-21-21-21-12 0-21 9-21 21 0 12 9 21 21 21z m-171-298l0 256 111 0c9-25 32-43 60-43 28 0 51 18 60 43l111 0 0-256z"/>
<glyph glyph-name="inbox" unicode="&#57402;" d="M356 326l-30 30-49-49 0 184-42 0 0-184-49 49-30-30 100-100z m-23-113l-43-42-68 0-42 42-137 0 0-170 426 0 0 170z m94-128l-342 0 0 86 77 0 43-43 103 0 42 43 77 0z"/>
<glyph glyph-name="indent-decrease" unicode="&#57403;" d="M85 448l384 0 0-43-384 0z m128-85l256 0 0-43-256 0z m0-86l256 0 0-42-256 0z m0-85l256 0 0-43-256 0z m-128-85l384 0 0-43-384 0z m86 277l-128-128 128-128z"/>
<glyph glyph-name="indent-increase" unicode="&#57404;" d="M43 448l384 0 0-43-384 0z m0-85l256 0 0-43-256 0z m0-86l256 0 0-42-256 0z m0-85l256 0 0-43-256 0z m0-85l384 0 0-43-384 0z m298 21l128 128-128 128z"/>
<glyph glyph-name="infinity-loop" unicode="&#57405;" d="M363 363c-66 0-97-51-125-96-29-47-50-75-89-75-29 0-64 28-64 64 0 36 35 64 64 64 22 0 39-10 54-26l24 36c-20 19-44 33-78 33-56 0-106-50-106-107 0-57 50-107 106-107 66 0 97 51 125 96 29 47 50 75 89 75 29 0 64-28 64-64 0-44-20-64-64-64-21 0-37 9-52 24l-26-35c20-18 44-32 78-32 67 0 106 39 106 107 0 57-49 107-106 107z"/>
<glyph glyph-name="interface-alert-circle" unicode="&#57406;" d="M256 43c-118 0-213 95-213 213 0 118 95 213 213 213 118 0 213-95 213-213 0-118-95-213-213-213z m0 384c-94 0-171-77-171-171 0-94 77-171 171-171 94 0 171 77 171 171 0 94-77 171-171 171z m-21-43l42 0 0-149-42 0z m48-213c0-15-12-27-27-27-15 0-27 12-27 27 0 14 12 26 27 26 15 0 27-12 27-26z"/>
<glyph glyph-name="interface-information" unicode="&#57407;" d="M256 43c-118 0-213 95-213 213 0 118 95 213 213 213 118 0 213-95 213-213 0-118-95-213-213-213z m0 384c-94 0-171-77-171-171 0-94 77-171 171-171 94 0 171 77 171 171 0 94-77 171-171 171z m21-235l0 85c0 12-9 22-21 22l-43 0 0-43 22 0 0-64-43 0 0-43 128 0 0 43z m6 149c0-14-12-26-27-26-15 0-27 12-27 26 0 15 12 27 27 27 15 0 27-12 27-27z"/>
<glyph glyph-name="interface-question-mark" unicode="&#57408;" d="M256 43c-118 0-213 95-213 213 0 118 95 213 213 213 118 0 213-95 213-213 0-118-95-213-213-213z m0 384c-94 0-171-77-171-171 0-94 77-171 171-171 94 0 171 77 171 171 0 94-77 171-171 171z m21-235l-42 0 0 64 21 0c24 0 43 19 43 43 0 23-19 42-43 42-24 0-43-19-43-42l-42 0c0 47 38 85 85 85 47 0 85-38 85-85 0-40-27-73-64-83z m6-43c0-14-12-26-27-26-15 0-27 12-27 26 0 15 12 27 27 27 15 0 27-12 27-27z"/>
<glyph glyph-name="intersect" unicode="&#57409;" d="M299 320l0 128c0 24-19 43-43 43l-192 0c-24 0-43-19-43-43l0-192c0-24 19-43 43-43l128 0 0 107z m-150 43l0-107-85 0 0 192 192 0 0-85z m278-43l-128 0 0-107-107 0 0-128c0-23 19-42 43-42l192 0c23 0 42 19 42 42l0 192c0 24-19 43-42 43z m-192-235l0 86 106 0 0 106 86 0 0-192z"/>
<glyph glyph-name="italic" unicode="&#57410;" d="M448 427l0 42-213 0 0-42 74 0-152-342-93 0 0-42 213 0 0 42-73 0 151 342z"/>
<glyph glyph-name="key" unicode="&#57411;" d="M433 291l30 30-60 60 30 31-30 30-201-201 0 0c-15 9-33 15-53 15-59 0-106-48-106-107 0-59 47-106 106-106 59 0 107 47 107 106 0 24-8 46-22 64l78 78 61-60 30 30-61 60 31 30z m-284-206c-35 0-64 29-64 64 0 36 29 64 64 64 36 0 64-28 64-64 0-35-28-64-64-64z"/>
<glyph glyph-name="laptop" unicode="&#57412;" d="M504 91l-35 104 0 253c0 12-9 21-21 21l-384 0c-12 0-21-9-21-21l0-253-35-104c-4-12-2-24 4-34 7-9 18-14 31-14l426 0c13 0 24 5 31 14 6 10 8 22 4 34z m-77 336l0-214-342 0 0 214z m-376-342l28 86 354 0 28-86z m162 64l86 0 0-42-86 0z"/>
<glyph glyph-name="square" unicode="&#57413;" d="M448 469l-384 0c-12 0-21-9-21-21l0-384c0-12 9-21 21-21l384 0c12 0 21 9 21 21l0 384c0 12-9 21-21 21z m-21-384l-342 0 0 342 342 0z"/>
<glyph glyph-name="lightbulb" unicode="&#57414;" d="M192 21l43 0 0-21 42 0 0 21 43 0 0 43-128 0z m64 384c-82 0-149-67-149-149 0-58 33-110 85-135l0-14c0-12 10-22 21-22l86 0c11 0 21 10 21 22l0 14c52 25 85 77 85 135 0 82-67 149-149 149z m36-249c-9-3-15-12-15-21l0-7-42 0 0 7c0 9-6 18-15 21-42 15-71 55-71 100 0 59 48 107 107 107 59 0 107-48 107-107 0-45-29-85-71-100z m-57 356l42 0 0-85-42 0z m-235-235l85 0 0-42-85 0z m427 0l85 0 0-42-85 0z m6 186l30-30-64-64-30 30z m-354 0l64-64-30-30-64 64z"/>
<glyph glyph-name="link" unicode="&#57415;" d="M75 166l30 30-15 15c-8 8-8 22 0 30l181 181c4 4 9 7 15 7 6 0 11-3 15-7l15-15 30 30-15 15c-24 25-66 25-90 0l-181-181c-25-25-25-65 0-90z m377 166l-15 15-30-30 15-15c4-4 6-10 6-16 0-5-2-11-6-15l-181-181c-8-8-22-8-30 0l-15 15-31-30 16-15c12-12 28-19 45-19 17 0 33 7 45 19l181 181c12 12 19 28 19 45 0 18-7 34-19 46z m-30 120l30-30-151-151-30 31z m-211-211l30-30-151-151-30 30z"/>
<glyph glyph-name="link-broken" unicode="&#57416;" d="M347 437c-25 25-66 25-91 0l-75-75 30-31 75 76c8 8 22 8 30 0z m60-121c8-8 8-22 0-30l-76-75 31-30 75 75c25 25 25 66 0 91z m-332-151l30 31c-8 8-8 21 0 30l76 75-31 30-75-75c-25-25-25-66 0-91z m226 16l-75-76c-8-8-22-8-30 0l-31-30c13-12 29-19 46-19 16 0 33 7 45 19l75 75z m121 271l30-30-151-151-30 30z m-211-211l30-30-151-151-30 30z m211-39l60 0 0-43-60 0z m-112-112l43 0 0-60-43 0z m-151 392l43 0 0-60-43 0z m-129-129l60 0 0-43-60 0z"/>
<glyph glyph-name="list-bullets" unicode="&#57417;" d="M107 469c-36 0-64-28-64-64 0-35 28-64 64-64 35 0 64 29 64 64 0 36-29 64-64 64z m0-85c-12 0-22 10-22 21 0 12 10 22 22 22 11 0 21-10 21-22 0-11-10-21-21-21z m0-64c-36 0-64-29-64-64 0-35 28-64 64-64 35 0 64 29 64 64 0 35-29 64-64 64z m0-85c-12 0-22 9-22 21 0 12 10 21 22 21 11 0 21-9 21-21 0-12-10-21-21-21z m0-64c-36 0-64-29-64-64 0-36 28-64 64-64 35 0 64 28 64 64 0 35-29 64-64 64z m0-86c-12 0-22 10-22 22 0 11 10 21 22 21 11 0 21-10 21-21 0-12-10-22-21-22z m106 342l256 0 0-43-256 0z m0-150l256 0 0-42-256 0z m0-149l256 0 0-43-256 0z"/>
<glyph glyph-name="list-number" unicode="&#57418;" d="M171 427l298 0 0-43-298 0z m0-150l298 0 0-42-298 0z m0-149l298 0 0-43-298 0z m-79 301l0-76 24 0 0 105c0 4-3 9-8 10-4 2-9 1-12-2l-32-32 16-16z m4-109c-18 0-32-14-32-32l0-11 21 0 0 11c0 6 5 11 11 11 6 0 11-5 11-11 0-10-21-37-40-56-3-4-4-8-2-12 1-4 5-7 10-7l53 0 0 22-29 0c13 15 29 37 29 53 0 18-14 32-32 32z m0-159l-32 0 0-21 32 0c6 0 11-5 11-11 0-6-5-10-11-10l-11 0 0-22 11 0c6 0 11-5 11-10 0-6-5-11-11-11l-32 0 0-21 32 0c18 0 32 14 32 32 0 8-3 15-8 21 5 6 8 13 8 21 0 18-14 32-32 32z"/>
<glyph glyph-name="location-direction" unicode="&#57419;" d="M397 87l-141 60-141-60c-8-3-18-2-24 5-6 6-7 16-4 24l150 320c3 7 11 12 19 12 8 0 16-5 19-12l150-320c3-8 2-18-4-24-7-7-16-8-24-5z m-141 105c3 0 6-1 8-2l98-42-106 228-106-228 98 42c2 1 5 2 8 2z"/>
<glyph glyph-name="location-globe" unicode="&#57420;" d="M256 469c-118 0-213-95-213-213 0-118 95-213 213-213 118 0 213 95 213 213 0 118-95 213-213 213z m-85-65c19 11 41 18 64 21l0-126 64 0 0-75-53-40-39 115-36 0z m85-319c-94 0-171 77-171 171 0 43 17 82 43 113l0-113 49 0 47-142 117 89 0 138-64 0 0 84c84-10 150-82 150-169 0-94-77-171-171-171z"/>
<glyph glyph-name="location-gps-off" unicode="&#57421;" d="M109 169l32 32c-8 17-13 35-13 55 0 63 46 116 107 126l0-19 42 0 0 19c12-2 24-6 34-11l32 32c-20 11-42 19-66 22l0 44-42 0 0-44c-77-9-139-71-148-148l-44 0 0-42 44 0c3-24 11-46 22-66z m294 174l79 79-30 30-384-384 31-30 70 71c20-11 42-19 66-22l0-44 42 0 0 44c77 9 139 71 148 148l44 0 0 42-44 0c-3 24-11 46-22 66z m-147-215c-20 0-38 5-55 13l33 33c29-8 60-1 82 22 23 22 30 53 22 82l33 33c8-17 13-35 13-55 0-71-57-128-128-128z"/>
<glyph glyph-name="location-gps-on" unicode="&#57422;" d="M320 256c0-35-29-64-64-64-35 0-64 29-64 64 0 35 29 64 64 64 35 0 64-29 64-64z m149 21l-44 0c-9 77-71 139-148 148l0 44-42 0 0-44c-77-9-139-71-148-148l-44 0 0-42 44 0c9-77 71-139 148-148l0-44 42 0 0 44c77 9 139 71 148 148l44 0z m-213-149c-71 0-128 57-128 128 0 71 57 128 128 128 71 0 128-57 128-128 0-71-57-128-128-128z"/>
<glyph glyph-name="location-plan" unicode="&#57423;" d="M439 132c5 4 9 10 9 17l0 299c0 8-4 15-11 19-7 4-16 3-22-1l-115-77-95 76c-3 2-8 4-12 4-5 0-10-1-13-3l-128-86c-6-4-9-10-9-17l0-299c0-8 4-15 11-19 3-2 7-2 10-2 4 0 8 1 12 3l115 77 94-76c4-3 9-4 14-4 5 0 8 1 11 3z m-354 219l86 57 0-247-86-57z m192-243l-64 52 0 244 64-52z m128 53l-85-57 0 247 85 57z"/>
<glyph glyph-name="location-map" unicode="&#57424;" d="M256 128c-8 0-16 5-19 12-15 33-88 195-88 244 0 59 48 107 107 107 59 0 107-48 107-107 0-49-73-211-88-244-3-7-11-12-19-12z m0 320c-35 0-64-29-64-64 0-25 34-112 64-182 30 70 64 157 64 182 0 35-29 64-64 64z m32-64c0-18-14-32-32-32-18 0-32 14-32 32 0 18 14 32 32 32 18 0 32-14 32-32z m128-320l-320 0c-14 0-27 7-35 19-8 12-10 27-4 40l46 107c7 16 22 26 39 26l18 0 0-43-18 0-46-106 320 0-46 106-18 0 0 43 18 0c17 0 32-10 39-26l46-107c6-13 4-28-4-40-8-12-21-19-35-19z"/>
<glyph glyph-name="location-pin-1" unicode="&#57425;" d="M256 256c-35 0-64 29-64 64 0 35 29 64 64 64 35 0 64-29 64-64 0-35-29-64-64-64z m0 85c-12 0-21-9-21-21 0-12 9-21 21-21 12 0 21 9 21 21 0 12-9 21-21 21z m0-313c-50 68-149 208-149 292 0 82 67 149 149 149 82 0 149-67 149-149 0-84-99-224-149-292z m0 399c-59 0-107-48-107-107 0-55 67-162 107-220 40 58 107 165 107 220 0 59-48 107-107 107z"/>
<glyph glyph-name="location-pin-2" unicode="&#57426;" d="M256 73c51 62 128 167 128 247 0 71-57 128-128 128-71 0-128-57-128-128 0-80 77-185 128-247z m0 332c47 0 85-38 85-85 0-53-52-134-85-179-33 45-85 125-85 179 0 47 38 85 85 85z m43-85c0-24-19-43-43-43-24 0-43 19-43 43 0 24 19 43 43 43 24 0 43-19 43-43z m-128-256l170 0 0-43-170 0z"/>
<glyph glyph-name="lock-closed" unicode="&#57427;" d="M288 160c0-18-14-32-32-32-18 0-32 14-32 32 0 18 14 32 32 32 18 0 32-14 32-32z m75 117l0 86c0 58-48 106-107 106-59 0-107-48-107-106l0-86c-23 0-42-19-42-42l0-150c0-23 19-42 42-42l214 0c23 0 42 19 42 42l0 150c0 23-19 42-42 42z m-171 86c0 35 29 64 64 64 35 0 64-29 64-64l0-86-128 0z m-43-278l0 150 214 0 0-150z"/>
<glyph glyph-name="lock-open" unicode="&#57428;" d="M288 160c0-18-14-32-32-32-18 0-32 14-32 32 0 18 14 32 32 32 18 0 32-14 32-32z m75 117l-171 0 0 64c0 36 29 64 64 64 35 0 64-28 64-64l0-21 43 0 0 21c0 59-48 107-107 107-59 0-107-48-107-107l0-64c-23 0-42-19-42-42l0-150c0-23 19-42 42-42l214 0c23 0 42 19 42 42l0 150c0 23-19 42-42 42z m-214-192l0 150 214 0 0-150z"/>
<glyph glyph-name="leave" unicode="&#57429;" d="M384 43l-235 0c-23 0-42 19-42 42l0 64 42 0 0-64 235 0 0 342-235 0 0-64-42 0 0 64c0 23 19 42 42 42l235 0c24 0 43-19 43-42l0-342c0-23-19-42-43-42z m-134 313l-30-30 49-49-184 0 0-42 183 0-48-49 30-30 100 100z"/>
<glyph glyph-name="harry-potter" unicode="&#57430;" d="M465 252l-68 68 42 89c4 8 2 18-4 24-7 6-16 8-24 4l-89-42-68 68c-7 7-17 8-25 4-8-4-13-13-11-22l15-93-93-47c-8-4-13-13-11-22 1-9 8-16 17-18l79-12-197-197 30-30 197 197 12-79c2-9 9-16 18-17 1-1 2-1 3-1 8 0 16 5 19 12l47 93 93-15c9-2 18 3 22 11 4 8 3 18-4 25z m-120 23c-9 2-18-3-22-11l-24-48-9 55c-1 9-8 16-17 17l-55 9 48 24c8 4 13 13 11 22l-7 43 33-32c6-7 16-8 24-4l47 22-22-47c-4-8-3-18 4-24l32-33z"/>
<glyph glyph-name="measuring-tool" unicode="&#57431;" d="M448 299l-213 0c-12 0-22-10-22-22l0-213c0-12 10-21 22-21l170 0c6 0 11 2 15 6l43 43c4 4 6 9 6 15l0 170c0 12-9 22-21 22z m-192-43l171 0 0-128-43 0 0-43-128 0z m192 213l-384 0c-12 0-21-9-21-21l0-384c0-12 9-21 21-21l107 0c11 0 21 9 21 21l0 256 256 0c12 0 21 10 21 21l0 107c0 12-9 21-21 21z m-21-106l-22 0 0 42-42 0 0-42-43 0 0 42-43 0 0-42-42 0 0 42-43 0 0-42-21 0c-12 0-22-10-22-22l0-21-42 0 0-43 42 0 0-42-42 0 0-43 42 0 0-43-42 0 0-42 42 0 0-22-64 0 0 342 342 0z"/>
<glyph glyph-name="minus-front" unicode="&#57432;" d="M107 469l42 0 0-42-42 0z m64 0l42 0 0-42-42 0z m64 0l42 0 0-42-42 0z m-192 0l42 0 0-42-42 0z m0-64l42 0 0-42-42 0z m0-64l42 0 0-42-42 0z m0-64l42 0 0-42-42 0z m0-64l42 0 0-42-42 0z m64 0l42 0 0-42-42 0z m64 0l42 0 0-42-42 0z m64 0l42 0 0-42-42 0z m64 0l42 0 0-42-42 0z m0 64l42 0 0-42-42 0z m0 64l42 0 0-42-42 0z m0 128l42 0 0-42-42 0z m0-64l42 0 0-42-42 0z m128-64l-22 0c-23 0-42-19-42-42l0-150-150 0c-23 0-42-19-42-42l0-22c0-23 19-42 42-42l214 0c23 0 42 19 42 42l0 214c0 23-19 42-42 42z m-214-256l0 22 192 0 0 192 22 0 0-214z"/>
<glyph glyph-name="mobile-phone" unicode="&#57433;" d="M341 469l-170 0c-24 0-43-19-43-42l0-342c0-23 19-42 43-42l170 0c24 0 43 19 43 42l0 342c0 23-19 42-43 42z m0-42l0-43-170 0 0 43z m0-86l0-170-170 0 0 170z m-170-256l0 43 170 0 0-43z"/>
<glyph glyph-name="money-note-coin" unicode="&#57434;" d="M299 288c41 0 74 33 74 75 0 41-33 74-74 74-42 0-75-33-75-74 0-42 33-75 75-75z m0 107c17 0 32-15 32-32 0-18-15-32-32-32-18 0-32 14-32 32 0 17 14 32 32 32z m192 117l-384 0c-12 0-22-10-22-21l0-237c7 1 14 2 22 2 7 0 14-1 21-2 1 1 0 78 0 78l47-46c15 7 31 11 48 12l-95 95 0 76 205 0 136-137 0-76-130 0c13-12 23-27 30-43l122 0c11 0 21 10 21 22l0 256c0 11-10 21-21 21z m-22-119l-76 76 76 0z m-234-137c-38 0-71-20-90-50-12 5-25 7-38 7-59 0-107-48-107-106 0-59 48-107 107-107 38 0 71 20 89 50 12-5 25-7 39-7 58 0 106 48 106 106 0 59-48 107-106 107z m-128-213c-36 0-64 28-64 64 0 35 28 64 64 64 8 0 16-2 23-5-1-5-2-11-2-17 0-30 13-57 33-76-12-18-32-30-54-30z m128 42c-36 0-64 29-64 64 0 36 28 64 64 64 35 0 64-28 64-64 0-35-29-64-64-64z"/>
<glyph glyph-name="move-down" unicode="&#57435;" d="M235 384l0-269-49 49-30-30 100-100 100 100-30 30-49-49 0 269z m-150 85l342 0 0-42-342 0z"/>
<glyph glyph-name="move-left" unicode="&#57436;" d="M469 277l-268 0 49 49-30 30-101-100 101-100 30 30-49 49 268 0z m-426 150l42 0 0-342-42 0z"/>
<glyph glyph-name="move-right" unicode="&#57437;" d="M262 186l30-30 101 100-101 100-30-30 49-49-268 0 0-42 268 0z m165 241l42 0 0-342-42 0z"/>
<glyph glyph-name="move-to-back" unicode="&#57438;" d="M21 192l43 0 0-43-43 0z m0 64l43 0 0-43-43 0z m0 64l43 0 0-43-43 0z m0 64l43 0 0-43-43 0z m0-256l43 0 0-43-43 0z m0-64l43 0 0-43-43 0z m64 0l43 0 0-43-43 0z m64 0l43 0 0-43-43 0z m64 0l43 0 0-43-43 0z m64 0l43 0 0-43-43 0z m64 0l43 0 0-43-43 0z m86 405l-278 0c-23 0-42-19-42-42l0-278c0-23 19-42 42-42l278 0c23 0 42 19 42 42l0 278c0 23-19 42-42 42z m-278-320l0 278 278 0 0-278z"/>
<glyph glyph-name="move-to-front" unicode="&#57439;" d="M64 363l-43 0 0-342 342 0 0 43-299 0z m43 106l42 0 0-42-42 0z m64 0l42 0 0-42-42 0z m64 0l42 0 0-42-42 0z m64 0l42 0 0-42-42 0z m128 0l42 0 0-42-42 0z m-64 0l42 0 0-42-42 0z m64-192l42 0 0-42-42 0z m-320 0l42 0 0-42-42 0z m0 64l42 0 0-42-42 0z m0 64l42 0 0-42-42 0z m320-64l42 0 0-42-42 0z m0 64l42 0 0-42-42 0z m-320-192l42 0 0-42-42 0z m0-64l42 0 0-42-42 0z m64 0l42 0 0-42-42 0z m64 0l42 0 0-42-42 0z m64 0l42 0 0-42-42 0z m64 0l42 0 0-42-42 0z m64 0l42 0 0-42-42 0z m0 64l42 0 0-42-42 0z"/>
<glyph glyph-name="move-up" unicode="&#57440;" d="M277 128l0 268 49-48 30 30-100 100-100-100 30-30 49 48 0-268z m-192-43l342 0 0-42-342 0z"/>
<glyph glyph-name="music-note" unicode="&#57441;" d="M417 444c-6 4-13 5-20 2l-213-85c-8-3-13-11-13-20l0-135c-10 4-21 7-32 7-42 0-75-33-75-74 0-42 33-75 75-75 41 0 74 33 74 75l0 188 171 68 0-125c-10 4-20 7-32 7-41 0-75-33-75-74 0-42 34-75 75-75 41 0 75 33 75 75l0 224c0 7-4 13-10 17z m-278-337c-18 0-32 14-32 32 0 17 14 32 32 32 17 0 32-15 32-32 0-18-15-32-32-32z m213 64c-18 0-32 14-32 32 0 17 14 32 32 32 18 0 32-15 32-32 0-18-14-32-32-32z"/>
<glyph glyph-name="hamburger" unicode="&#57442;" d="M107 171l298 0 0-64-298 0z m0 106l298 0 0-64-298 0z m0 107l298 0 0-64-298 0z"/>
<glyph glyph-name="more-horizontal" unicode="&#57443;" d="M149 256c0-24-19-43-42-43-24 0-43 19-43 43 0 24 19 43 43 43 23 0 42-19 42-43z m150 0c0-24-19-43-43-43-24 0-43 19-43 43 0 24 19 43 43 43 24 0 43-19 43-43z m149 0c0-24-19-43-43-43-23 0-42 19-42 43 0 24 19 43 42 43 24 0 43-19 43-43z"/>
<glyph glyph-name="more-vertical" unicode="&#57444;" d="M299 405c0-23-19-42-43-42-24 0-43 19-43 42 0 24 19 43 43 43 24 0 43-19 43-43z m0-149c0-24-19-43-43-43-24 0-43 19-43 43 0 24 19 43 43 43 24 0 43-19 43-43z m0-149c0-24-19-43-43-43-24 0-43 19-43 43 0 23 19 42 43 42 24 0 43-19 43-42z"/>
<glyph glyph-name="new-square" unicode="&#57445;" d="M469 149l-64 0 0 64-42 0 0-64-64 0 0-42 64 0 0-64 42 0 0 64 64 0z m-405 299l299 0 0-192 42 0 0 192c0 24-19 43-42 43l-299 0c-24 0-43-19-43-43l0-299c0-23 19-42 43-42l192 0 0 42-192 0z"/>
<glyph glyph-name="outbox" unicode="&#57446;" d="M235 418l0-183 42 0 0 183 49-49 30 30-100 100-100-100 30-30z m98-205l-43-42-68 0-42 42-137 0 0-170 426 0 0 170z m94-128l-342 0 0 86 77 0 43-43 103 0 42 43 77 0z"/>
<glyph glyph-name="paint-brush" unicode="&#57447;" d="M438 373c0 15-5 28-15 38-21 20-56 20-76 0l-68-68-30 30c-16 16-44 16-60 0l-61-60 16-15-16-15c-30-31-79-43-102-50l132-132c17-17 37-26 58-26 35 0 61 24 63 27l31 30 15-15 60 60c8 8 12 19 12 30 0 12-4 22-12 31l-30 30 68 68c10 10 15 23 15 37z m-189-241c0 0-15-14-33-14-9 0-19 4-28 13l-84 84c17 9 38 21 55 38l15 15 105-106z m76 45l-136 136 30 30 136-136z m67 189l-67-68-15 15 67 68c5 4 11 4 15 0 5-4 5-11 0-15z"/>
<glyph glyph-name="paint-bucket" unicode="&#57448;" d="M132 477l-117-203c-9-15-11-32-7-49 5-16 15-30 30-38l111-64c10-6 21-9 32-9 23 0 44 12 56 32l71 124 99 49z m145-175l-77-135c-6-10-20-13-30-8l-110 64c-5 3-9 8-10 13-2 6-1 12 2 17l96 166 169-98z m138-27c-16-26-76-117-76-157 0-41 34-75 76-75 42 0 76 34 76 75 0 40-59 130-76 157z m0-190c-18 0-33 15-33 33 0 11 15 43 33 75 18-32 33-64 33-75 0-18-15-33-33-33z"/>
<glyph glyph-name="paint-palette" unicode="&#57449;" d="M256 469c-118 0-213-95-213-213 0-118 95-213 213-213 10 0 20 0 29 2 23 3 41 18 49 40 7 21 1 45-15 61l-21 21c-5 5-6 12-3 19 0 1 2 6 15 6l100 0c31 0 59 30 59 64 0 118-95 213-213 213z m154-234l-100 0c-26 0-46-12-55-33-9-22-4-48 13-65 11-11 30-24 25-39-4-13-22-13-37-13-94 0-171 77-171 171 0 94 77 171 171 171 94 0 171-77 171-171 0-10-9-21-17-21z m-175 170c-24 0-43-19-43-42 0-24 19-43 43-43 23 0 42 19 42 43 0 23-19 42-42 42z m-86-106c-23 0-42-19-42-43 0-24 19-43 42-43 24 0 43 19 43 43 0 24-19 43-43 43z m192 42c-23 0-42-19-42-42 0-24 19-43 42-43 24 0 43 19 43 43 0 23-19 42-43 42z"/>
<glyph glyph-name="paint-roll" unicode="&#57450;" d="M405 384l-42 0 0 21c0 24-19 43-43 43l-235 0c-23 0-42-19-42-43l0-85c0-24 19-43 42-43l235 0c24 0 43 19 43 43l0 21 42 0 0-85-192 0c-23 0-42-19-42-43l0-42-22 0 0-107c0-24 19-43 43-43 24 0 43 19 43 43l0 107-22 0 0 42 192 0c24 0 43 19 43 43l0 85c0 24-19 43-43 43z m-320-64l0 85 235 0 0-85z"/>
<glyph glyph-name="paperclip" unicode="&#57451;" d="M235 21c-62 0-107 50-107 118l0 181c0 85 60 149 139 149 79 0 138-64 138-149l0-149-42 0 0 149c0 62-41 107-96 107-56 0-96-45-96-107l0-181c0-38 19-75 64-75 44 0 64 37 64 75l0 160c0 13-3 42-32 42-29 0-32-29-32-42l0-150-43 0 0 150c0 51 30 85 75 85 44 0 74-34 74-85l0-160c0-68-45-118-106-118z"/>
<glyph glyph-name="paperplane" unicode="&#57452;" d="M478 276c-110 47-191 83-250 109-114 52-145 65-167 65-18 0-27-11-30-14-11-14-13-34-4-49l79-131-79-131c-9-15-7-35 4-49 3-3 12-14 30-14 22 0 53 13 167 64 59 27 139 62 250 110 8 4 13 12 13 20 0 9-5 16-13 20z m-412 131c17-3 62-24 145-61 41-18 92-41 156-69l-224 0z m144-242c-84-37-129-58-145-60l78 130 224 0c-64-29-116-52-157-70z"/>
<glyph glyph-name="paragraph" unicode="&#57453;" d="M448 469l-256 0c-71 0-128-57-128-128 0-70 57-128 128-128l43 0 0-170 42 0 0 384 64 0 0-384 43 0 0 384 64 0z m-213-213l-43 0c-47 0-85 38-85 85 0 47 38 86 85 86l43 0z"/>
<glyph glyph-name="paragraph-left-to-right" unicode="&#57454;" d="M399 207l-30-30 49-49-375 0 0-43 375 0-49-49 30-30 101 101z m-250 92l43 0 0-128 43 0 0 298 42 0 0-298 43 0 0 298 64 0 0 43-235 0c-58 0-106-48-106-107 0-58 48-106 106-106z m0 170l43 0 0-128-43 0c-35 0-64 29-64 64 0 36 29 64 64 64z"/>
<glyph glyph-name="paragraph-right-to-left" unicode="&#57455;" d="M143 177l-30 30-100-100 100-101 30 30-49 49 375 0 0 43-375 0z m92 335c-59 0-107-48-107-107 0-58 48-106 107-106l42 0 0-128 43 0 0 298 43 0 0-298 42 0 0 298 64 0 0 43z m42-171l-42 0c-36 0-64 29-64 64 0 36 28 64 64 64l42 0z"/>
<glyph glyph-name="paragraph-spacing" unicode="&#57456;" d="M177 369l30 30-100 100-101-100 30-30 49 49 0-324-49 49-30-30 101-101 100 101-30 30-49-49 0 324z m122 143l213 0 0-43-213 0z m-64-85l277 0 0-43-277 0z m0-86l277 0 0-42-277 0z m64-128l213 0 0-42-213 0z m-64-85l277 0 0-43-277 0z m0-85l277 0 0-43-277 0z"/>
<glyph glyph-name="pen-tool" unicode="&#57457;" d="M341 344l0 83c0 23-19 42-42 42l-86 0c-23 0-42-19-42-42l0-83-45-156 130-182 130 182z m-128 83l86 0 0-64-86 0z m43-348l-83 117 35 124 96 0 35-124z m32 145c0-18-14-32-32-32-18 0-32 14-32 32 0 18 14 32 32 32 18 0 32-14 32-32z"/>
<glyph glyph-name="pencil" unicode="&#57458;" d="M444 444c-16 16-38 25-61 25-22 0-44-9-60-25l-244-243c-2-3-4-6-5-10l-31-122c-1-7 1-15 6-20 5-5 13-8 20-6l122 31c4 1 7 3 10 5l243 244c16 16 25 38 25 60 0 23-9 45-25 61z m-250-281l159 160 16-16-170-169z m-31 31l-25 5 169 169 16-15z m-53-33l42-9 9-42-68-17z m228 238l15 15c16 16 45 16 61 0l0 0c16-16 16-45 0-61l-15-15z"/>
<glyph glyph-name="percent" unicode="&#57459;" d="M149 277c47 0 86 39 86 86 0 47-39 85-86 85-47 0-85-38-85-85 0-47 38-86 85-86z m0 128c24 0 43-19 43-42 0-24-19-43-43-43-23 0-42 19-42 43 0 23 19 42 42 42z m214-170c-47 0-86-39-86-86 0-47 39-85 86-85 47 0 85 38 85 85 0 47-38 86-85 86z m0-128c-24 0-43 19-43 42 0 24 19 43 43 43 23 0 42-19 42-43 0-23-19-42-42-42z m-293-7l342 342 30-30-342-342z"/>
<glyph glyph-name="bug" unicode="&#57460;" d="M469 320l-78 0c-2 4-4 7-6 11l63 42 0 75-43 0 0-53-46-31c-14 13-30 24-48 31 6 9 9 20 9 32 0 35-29 64-64 64-35 0-64-29-64-64 0-12 3-23 9-32-18-7-34-18-48-31l-46 31 0 53-43 0 0-75 63-42c-2-4-4-7-6-11l-78 0 0-43 65 0c-1-7-1-14-1-21 0-7 0-14 1-21l-65 0 0-43 78 0c2-4 5-8 7-13l-43-42 0-73 43 0 0 55 27 27c27-24 62-39 101-39 39 0 74 15 101 39l27-27 0-55 43 0 0 73-43 42c2 5 5 9 7 13l78 0 0 43-65 0c1 7 1 14 1 21 0 7 0 14-1 21l65 0z m-234 107c0 11 9 21 21 21 12 0 21-10 21-21 0-12-9-22-21-22-12 0-21 10-21 22z m21-278c-59 0-107 50-107 107 0 59 48 107 107 107 59 0 107-48 107-107 0-57-48-107-107-107z"/>
<glyph glyph-name="photo-landscape" unicode="&#57461;" d="M427 405l-342 0c-23 0-42-19-42-42l0-214c0-23 19-42 42-42l342 0c23 0 42 19 42 42l0 214c0 23-19 42-42 42z m-342-256l0 214 342 0 0-214z m171 86c-39 0-64-25-64-64l128 0c0 39-25 64-64 64z m43 64c0-24-19-43-43-43-24 0-43 19-43 43 0 23 19 42 43 42 24 0 43-19 43-42z"/>
<glyph glyph-name="photo-portrait" unicode="&#57462;" d="M363 469l-214 0c-23 0-42-19-42-42l0-342c0-23 19-42 42-42l214 0c23 0 42 19 42 42l0 342c0 23-19 42-42 42z m-214-384l0 342 214 0 0-342z m107 150c-39 0-64-25-64-64l128 0c0 39-25 64-64 64z m43 64c0-24-19-43-43-43-24 0-43 19-43 43 0 23 19 42 43 42 24 0 43-19 43-42z"/>
<glyph glyph-name="photo-view-all" unicode="&#57463;" d="M427 469l-342 0c-23 0-42-19-42-42l0-342c0-23 19-42 42-42l342 0c23 0 42 19 42 42l0 342c0 23-19 42-42 42z m-342-384l0 342 342 0 0-342z m43 192l107 0 0 107-107 0z m43 64l21 0 0-21-21 0z m-43-213l107 0 0 107-107 0z m43 64l21 0 0-21-21 0z m106 85l107 0 0 107-107 0z m43 64l21 0 0-21-21 0z"/>
<glyph glyph-name="picture-layer" unicode="&#57464;" d="M448 320l-256 0c-24 0-43-19-43-43l0-170c0-24 19-43 43-43l256 0c24 0 43 19 43 43l0 170c0 24-19 43-43 43z m0-213l-256 0 0 170 256 0z m-384 277l256 0 0-21 43 0 0 21c0 24-19 43-43 43l-256 0c-24 0-43-19-43-43l0-171c0-23 19-42 43-42l43 0 0 42-43 0z m291-141l-56-91-25 40-39-64 192 0z"/>
<glyph glyph-name="pin" unicode="&#57465;" d="M469 256l-211 211-30-30 30-30 0 0-105-106 0 0-31 30-30-30 91-90-121-121 30-30 121 121 90-91 31 30-31 30 106 106 30-30z m-196-75l0 0-90 90 105 106 91-91z"/>
<glyph glyph-name="home" unicode="&#57466;" d="M363 43l-43 0c-24 0-43 19-43 42l0 64-42 0 0-64c0-23-19-42-43-42l-43 0c-23 0-42 19-42 42l0 128-43 0c-9 0-16 6-20 14-3 7-1 17 5 23l192 192c8 8 22 8 30 0l192-192c6-6 8-16 5-23-4-8-11-14-20-14l-43 0 0-128c0-23-19-42-42-42z m-150 149l86 0c11 0 21-10 21-21l0-86 43 0 0 150c0 11 9 21 21 21l13 0-141 140-140-140 12 0c12 0 21-10 21-21l0-150 43 0 0 86c0 11 10 21 21 21z"/>
<glyph glyph-name="power" unicode="&#57467;" d="M320 393l0-48c38-22 64-63 64-110 0-71-57-128-128-128-71 0-128 57-128 128 0 47 26 88 64 110l0 48c-62-26-107-87-107-158 0-94 77-171 171-171 94 0 171 77 171 171 0 71-45 132-107 158z m-85 55l42 0 0-171-42 0z"/>
<glyph glyph-name="printer" unicode="&#57468;" d="M469 277c0 36-28 64-64 64l-42 0 0-42-214 0 0 42-42 0c-36 0-64-28-64-64l0-192 64 0 0-85 298 0 0 85 64 0z m-106-234l-214 0 0 85 214 0z m64 85l-22 0 0 43-298 0 0-43-22 0 0 149c0 12 10 22 22 22l0-43 298 0 0 43c12 0 22-10 22-22z m-278 320l214 0 0-85 42 0 0 128-298 0 0-128 42 0z m235-235c0-11-10-21-21-21-12 0-22 10-22 21 0 12 10 22 22 22 11 0 21-10 21-22z"/>
<glyph glyph-name="qr-code" unicode="&#57469;" d="M64 299l128 0c12 0 21 9 21 21l0 128c0 12-9 21-21 21l-128 0c-12 0-21-9-21-21l0-128c0-12 9-21 21-21z m21 128l86 0 0-86-86 0z m363 42l-85 0c-12 0-22-9-22-21l0-85c0-12 10-22 22-22l85 0c12 0 21 10 21 22l0 85c0 12-9 21-21 21z m-21-85l-43 0 0 43 43 0z m-278-213l-85 0c-12 0-21-10-21-22l0-85c0-12 9-21 21-21l85 0c12 0 22 9 22 21l0 85c0 12-10 22-22 22z m-21-86l-43 0 0 43 43 0z m107 384l85 0 0-42-85 0z m21-149l64 0 0 43-43 0 0 42-42 0 0-64c0-11 9-21 21-21z m85-21l0-86c0-11 10-21 22-21l64 0 0-21 42 0 0 42c0 12-9 22-21 22l-64 0 0 42 85 0 0 43-106 0c-12 0-22-10-22-21z m-128-107l0 64c0 12-9 21-21 21l-149 0 0-42 42 0 0-43 43 0 0 43 43 0 0-43z m22 43l85 0 0-43-85 0z m21 64l64 0 0-43-64 0z m64-171l0-43-85 0 0 22-43 0 0-43c0-12 10-21 21-21l128 0c12 0 22 9 22 21l0 43 106 0 0 42-128 0c-11 0-21-9-21-21z m-64 43l43 0 0-64-43 0z m-64 0l43 0 0-43-43 0z m192-86l85 0 0-42-85 0z"/>
<glyph glyph-name="quote-closing" unicode="&#57470;" d="M363 427c-47 0-86-39-86-86 0-47 39-85 86-85 15 0 30 5 42 12l0-55c0-47-38-85-85-85l-21 0 0-43 21 0c71 0 128 58 128 128l0 128c0 47-38 86-85 86z m0-128c-24 0-43 19-43 42 0 24 19 43 43 43 23 0 42-19 42-43 0-23-19-42-42-42z m-214 128c-47 0-85-39-85-86 0-47 38-85 85-85 16 0 30 5 43 12l0-55c0-47-38-85-85-85l-22 0 0-43 22 0c70 0 128 58 128 128l0 128c0 47-39 86-86 86z m0-128c-23 0-42 19-42 42 0 24 19 43 42 43 24 0 43-19 43-43 0-23-19-42-43-42z"/>
<glyph glyph-name="quote-opening" unicode="&#57471;" d="M149 256c-15 0-30-5-42-12l0 55c0 47 38 85 85 85l21 0 0 43-21 0c-71 0-128-58-128-128l0-128c0-47 38-86 85-86 47 0 86 39 86 86 0 47-39 85-86 85z m0-128c-23 0-42 19-42 43 0 23 19 42 42 42 24 0 43-19 43-42 0-24-19-43-43-43z m214 128c-16 0-30-5-43-12l0 55c0 47 38 85 85 85l22 0 0 43-22 0c-70 0-128-58-128-128l0-128c0-47 39-86 86-86 47 0 85 39 85 86 0 47-38 85-85 85z m0-128c-24 0-43 19-43 43 0 23 19 42 43 42 23 0 42-19 42-42 0-24-19-43-42-43z"/>
<glyph glyph-name="reflect-left" unicode="&#57472;" d="M256 235l85 0 0 42-85 0 0 64-107-85 107-85z m-213 42l42 0 0-42-42 0z m0 64l42 0 0-42-42 0z m0 64l42 0 0-42-42 0z m128 64l42 0 0-42-42 0z m-64 0l42 0 0-42-42 0z m-64 0l42 0 0-42-42 0z m0-256l42 0 0-42-42 0z m0-64l42 0 0-42-42 0z m0-64l42 0 0-42-42 0z m64 0l42 0 0-42-42 0z m64 0l42 0 0-42-42 0z m64 384l0-106 42 0 0 64 150 0 0-342-150 0 0 43-42 0 0-85 234 0 0 426z"/>
<glyph glyph-name="reflect-right" unicode="&#57473;" d="M363 256l-107 85 0-64-85 0 0-42 85 0 0-64z m64 21l42 0 0-42-42 0z m0 64l42 0 0-42-42 0z m0 64l42 0 0-42-42 0z m-128 64l42 0 0-42-42 0z m64 0l42 0 0-42-42 0z m64 0l42 0 0-42-42 0z m0-256l42 0 0-42-42 0z m0-64l42 0 0-42-42 0z m0-64l42 0 0-42-42 0z m-64 0l42 0 0-42-42 0z m-64 0l42 0 0-42-42 0z m-64 0l-150 0 0 342 150 0 0-64 42 0 0 106-234 0 0-426 234 0 0 85-42 0z"/>
<glyph glyph-name="remove" unicode="&#57474;" d="M442 412l-30 30-156-156-156 156-30-30 156-156-156-156 30-30 156 156 156-156 30 30-156 156z"/>
<glyph glyph-name="ruler" unicode="&#57475;" d="M478 388l-91 90c-16 16-44 16-60 0l-272-271c-8-8-12-19-12-31 0-11 4-22 12-30l91-90c8-8 18-13 30-13 11 0 22 5 30 13l272 271c8 8 12 19 12 30 0 12-4 23-12 31z m-302-302l-91 90 46 46 45-46 30 31-45 45 45 45 45-45 30 30-45 45 45 46 46-46 30 30-45 46 45 45 90-91z"/>
<glyph glyph-name="scale-vertical" unicode="&#57476;" d="M235 427l-214 0c-11 0-21-10-21-22l0-64 43 0 0 43 64 0 0-256-43 0 0-43 128 0 0 43-43 0 0 256 64 0 0-43 43 0 0 64c0 12-10 22-21 22z m192-333l0 324 49-49 30 30-101 100-100-100 30-30 49 49 0-324-49 49-30-30 100-101 101 101-30 30z"/>
<glyph glyph-name="scissors" unicode="&#57477;" d="M405 192c-33 0-62-19-76-47l-44 69c35 56 80 129 138 222l-36 24-131-202-131 202-36-24c58-93 103-166 138-222l-44-69c-14 28-43 47-76 47-47 0-86-38-86-85 0-47 39-86 86-86 47 0 66 17 149 147 83-130 102-147 149-147 47 0 86 39 86 86 0 47-39 85-86 85z m-268-116c-8-8-19-12-30-12-24 0-43 19-43 43 0 23 19 42 43 42 23 0 42-19 42-42 0-12-4-22-12-31z m268-12c-11 0-22 4-30 12-8 9-12 19-12 31 0 23 19 42 42 42 24 0 43-19 43-42 0-24-19-43-43-43z"/>
<glyph glyph-name="select-area" unicode="&#57478;" d="M43 469l42 0 0-42-42 0z m64 0l42 0 0-42-42 0z m64 0l42 0 0-42-42 0z m64 0l42 0 0-42-42 0z m192 0l42 0 0-42-42 0z m-128 0l42 0 0-42-42 0z m64 0l42 0 0-42-42 0z m0-384l42 0 0-42-42 0z m64 192l42 0 0-42-42 0z m-384 0l42 0 0-42-42 0z m0 64l42 0 0-42-42 0z m0 64l42 0 0-42-42 0z m384-64l42 0 0-42-42 0z m0 64l42 0 0-42-42 0z m-384-192l42 0 0-42-42 0z m0-128l42 0 0-42-42 0z m64 0l42 0 0-42-42 0z m64 0l42 0 0-42-42 0z m64 0l42 0 0-42-42 0z m64 0l42 0 0-42-42 0z m128 0l42 0 0-42-42 0z m0 128l42 0 0-42-42 0z m-384-64l42 0 0-42-42 0z m384 0l42 0 0-42-42 0z m-64 214l-214 0 0-214 214 0z m-43-171l-128 0 0 128 128 0z"/>
<glyph glyph-name="send-to-back" unicode="&#57479;" d="M427 341l-86 0 0 86c0 23-19 42-42 42l-214 0c-23 0-42-19-42-42l0-214c0-23 19-42 42-42l86 0 0-86c0-23 19-42 42-42l214 0c23 0 42 19 42 42l0 214c0 23-19 42-42 42z m-342 86l214 0 0-214-214 0z m342-342l-214 0 0 86 86 0c23 0 42 19 42 42l0 86 86 0z"/>
<glyph glyph-name="send-to-front" unicode="&#57480;" d="M427 341l-86 0 0 86c0 23-19 42-42 42l-214 0c-23 0-42-19-42-42l0-214c0-23 19-42 42-42l86 0 0-86c0-23 19-42 42-42l214 0c23 0 42 19 42 42l0 214c0 23-19 42-42 42z m-256-42l0-86-86 0 0 214 214 0 0-86-86 0c-23 0-42-19-42-42z m42-214l0 214 214 0 0-214z"/>
<glyph glyph-name="database" unicode="&#57481;" d="M256 469c-95 0-192-29-192-85l0-256c0-56 97-85 192-85 95 0 192 29 192 85l0 256c0 56-97 85-192 85z m0-42c97 0 149-31 149-43 0-12-52-43-149-43-97 0-149 31-149 43 0 12 52 43 149 43z m0-342c-97 0-149 31-149 43l0 30c37-20 93-30 149-30 56 0 112 10 149 30l0-30c0-12-52-43-149-43z m0 86c-97 0-149 30-149 42l0 30c37-19 93-30 149-30 56 0 112 11 149 30l0-30c0-12-52-42-149-42z m0 85c-97 0-149 30-149 43l0 30c37-20 93-30 149-30 56 0 112 10 149 30l0-30c0-13-52-43-149-43z"/>
<glyph glyph-name="settings-slider" unicode="&#57482;" d="M405 320c36 0 64 29 64 64 0 35-28 64-64 64-27 0-51-18-60-43l-302 0 0-42 302 0c9-25 33-43 60-43z m0 85c12 0 22-9 22-21 0-12-10-21-22-21-11 0-21 9-21 21 0 12 10 21 21 21z m-213-85c-28 0-51-18-60-43l-89 0 0-42 89 0c9-25 32-43 60-43 28 0 51 18 60 43l217 0 0 42-217 0c-9 25-32 43-60 43z m0-85c-12 0-21 9-21 21 0 12 9 21 21 21 12 0 21-9 21-21 0-12-9-21-21-21z m213-43c-27 0-51-18-60-43l-302 0 0-42 302 0c9-25 33-43 60-43 36 0 64 29 64 64 0 35-28 64-64 64z m0-85c-11 0-21 9-21 21 0 12 10 21 21 21 12 0 22-9 22-21 0-12-10-21-22-21z"/>
<glyph glyph-name="share" unicode="&#57483;" d="M384 213c-26 0-48-11-64-29l-109 54c2 6 2 12 2 18 0 6 0 12-2 18l109 54c16-18 38-29 64-29 47 0 85 38 85 85 0 47-38 85-85 85-47 0-85-38-85-85 0-6 0-12 2-18l-109-54c-16 18-38 29-64 29-47 0-85-38-85-85 0-47 38-85 85-85 26 0 48 11 64 29l109-54c-2-6-2-12-2-18 0-47 38-85 85-85 47 0 85 38 85 85 0 47-38 85-85 85z m0 214c24 0 43-19 43-43 0-24-19-43-43-43-24 0-43 19-43 43 0 24 19 43 43 43z m-256-214c-24 0-43 19-43 43 0 24 19 43 43 43 24 0 43-19 43-43 0-24-19-43-43-43z m256-128c-24 0-43 19-43 43 0 24 19 43 43 43 24 0 43-19 43-43 0-24-19-43-43-43z"/>
<glyph glyph-name="megaphone" unicode="&#57484;" d="M397 422c-5 4-12 6-18 4l-254-63-61 0c-24 0-43-19-43-43l0-85c0-24 19-43 43-43l43 0 0-43c0-4 1-9 4-12l64-86 34 26-60 79 0 30 230-57c2-1 3-1 5-1 5 0 9 2 13 5 5 4 8 10 8 16l0 256c0 7-3 13-8 17z m-333-102l43 0 0-85-43 0z m299-143l-214 53 0 95 214 53z m64 160l0-120c24 9 42 33 42 60 0 28-18 52-42 60z"/>
<glyph glyph-name="rss" unicode="&#57485;" d="M107 43c-36 0-64 28-64 64 0 35 28 64 64 64 35 0 64-29 64-64 0-36-29-64-64-64z m0 85c-12 0-22-10-22-21 0-12 10-22 22-22 11 0 21 10 21 22 0 11-10 21-21 21z m213-64l-43 0c0 118-95 213-213 213l0 43c141 0 256-115 256-256z m128 0l-43 0c0 188-153 341-341 341l0 43c212 0 384-172 384-384z"/>
<glyph glyph-name="signal" unicode="&#57486;" d="M299 256c0-24-19-43-43-43-24 0-43 19-43 43 0 24 19 43 43 43 24 0 43-19 43-43z m-194-151c-83 83-83 219 0 302l30-30c-66-67-66-175 0-242z m302 0l-30 30c32 33 50 75 50 121 0 46-18 88-50 121l30 30c40-40 62-94 62-151 0-57-22-111-62-151z m-241 61c-25 24-38 56-38 90 0 34 13 66 38 90l30-30c-16-16-25-37-25-60 0-23 9-44 25-60z m180 0l-30 30c16 16 25 37 25 60 0 23-9 44-25 60l30 30c25-24 38-56 38-90 0-34-13-66-38-90z"/>
<glyph glyph-name="signal-tower" unicode="&#57487;" d="M285 225c8 8 14 19 14 31 0 24-19 43-43 43-24 0-43-19-43-43 0-12 6-23 14-31l-97-194c-3-7-3-15 1-21 4-6 11-10 18-10l214 0c7 0 14 4 18 10 4 6 4 14 1 21z m0-97l-58 0 29 59z m-101-85l21 42 102 0 21-42z m253 394c-48 48-113 75-181 75-68 0-133-27-181-75-48-48-75-113-75-181 0-68 27-133 75-181l30 30c-40 40-62 94-62 151 0 57 22 111 62 151 40 40 94 62 151 62 57 0 111-22 151-62 40-40 62-94 62-151 0-57-22-111-62-151l30-30c48 48 75 113 75 181 0 68-27 133-75 181z m-181-32c-82 0-149-67-149-149 0-19 3-38 10-55l40 15c-5 13-8 26-8 40 0 59 48 107 107 107 59 0 107-48 107-107 0-14-3-27-8-40l40-15c7 17 10 36 10 55 0 82-67 149-149 149z"/>
<glyph glyph-name="shear-left" unicode="&#57488;" d="M224 363l-224 0 267-342 225 0z m-137-43l116 0 201-256-116 0z m312-6l-49 49 119 0 0 42-119 0 49 49-30 30-100-100 100-100z"/>
<glyph glyph-name="shear-right" unicode="&#57489;" d="M288 363l-268-342 225 0 267 342z m-64-299l-116 0 201 256 116 0z m-111 250l30-30 101 100-101 100-30-30 49-49-119 0 0-42 119 0z"/>
<glyph glyph-name="shopping-bag" unicode="&#57490;" d="M427 322c-1 11-11 19-22 19l-42 0 0 22c0 58-48 106-107 106-59 0-107-48-107-106l0-22-42 0c-11 0-21-8-22-19l-21-256c0-6 2-12 6-16 4-5 9-7 15-7l342 0c6 0 11 2 15 7 4 4 6 10 6 16z m-235 41c0 35 29 64 64 64 35 0 64-29 64-64l0-22-128 0z m-83-278l17 214 23 0 0-64 43 0 0 64 128 0 0-64 43 0 0 64 23 0 17-214z"/>
<glyph glyph-name="shopping-basket" unicode="&#57491;" d="M469 299l-73 0-79 138-37-21 67-117-182 0 67 117-37 21-79-138-73 0 0-43 25 0 39-175c2-10 11-17 21-17l256 0c10 0 19 7 21 17l39 175 25 0z m-102-192l-222 0-33 149 288 0z m-132 128l42 0 0-107-42 0z m64 0l42 0 0-107-42 0z m-128 0l42 0 0-107-42 0z"/>
<glyph glyph-name="shopping-cart" unicode="&#57492;" d="M384 469c-10 0-19-7-21-16l-21-90-278 0c-7 0-13-3-17-9-4-5-5-11-4-18l43-171c2-9 11-16 21-16l213 0c10 0 19 7 21 17l60 261 68 0 0 42z m-81-277l-180 0-32 128 242 0z m-132-107c0-23-19-42-43-42-24 0-43 19-43 42 0 24 19 43 43 43 24 0 43-19 43-43z m170 0c0-23-19-42-42-42-24 0-43 19-43 42 0 24 19 43 43 43 23 0 42-19 42-43z"/>
<glyph glyph-name="shrink" unicode="&#57493;" d="M484 454l-30 30-91-91 0 76-43 0 0-149 149 0 0 43-76 0z m-441-177l42 0 0-42-42 0z m64 0l42 0 0-42-42 0z m64 0l42 0 0-42-42 0z m64 0l42 0 0-42-42 0z m0-64l42 0 0-42-42 0z m-192 0l42 0 0-42-42 0z m0-64l42 0 0-42-42 0z m0-64l42 0 0-42-42 0z m64 0l42 0 0-42-42 0z m64 0l42 0 0-42-42 0z m64 0l42 0 0-42-42 0z m0 64l42 0 0-42-42 0z m-107 278l0-107 43 0 0 107 106 0 0 42-106 0c-24 0-43-19-43-42z m299-256l-107 0 0-43 107 0c23 0 42 19 42 43l0 106-42 0z"/>
<glyph glyph-name="shrink-diagonal" unicode="&#57494;" d="M107 192l55 0-113-113 30-30 113 113 0-55 43 0 0 128-128 0z m326 271l-113-113 0 55-43 0 0-128 128 0 0 43-55 0 113 113z"/>
<glyph glyph-name="shrink-horizontal" unicode="&#57495;" d="M433 399l-143-143 143-143 30 30-113 113 113 113z m-384-30l113-113-113-113 30-30 143 143-143 143z"/>
<glyph glyph-name="shrink-vertical" unicode="&#57496;" d="M256 350l-113 113-30-30 143-143 143 143-30 30z m-143-271l30-30 113 113 113-113 30 30-143 143z"/>
<glyph glyph-name="command" unicode="&#57497;" d="M384 213l-43 0 0 86 43 0c47 0 85 38 85 85 0 47-38 85-85 85-47 0-85-38-85-85l0-43-86 0 0 43c0 47-38 85-85 85-47 0-85-38-85-85 0-47 38-85 85-85l43 0 0-86-43 0c-47 0-85-38-85-85 0-47 38-85 85-85 47 0 85 38 85 85l0 43 86 0 0-43c0-47 38-85 85-85 47 0 85 38 85 85 0 47-38 85-85 85z m-43 171c0 24 19 43 43 43 24 0 43-19 43-43 0-24-19-43-43-43l-43 0z m-170-256c0-24-19-43-43-43-24 0-43 19-43 43 0 24 19 43 43 43l43 0z m0 213l-43 0c-24 0-43 19-43 43 0 24 19 43 43 43 24 0 43-19 43-43z m128-128l-86 0 0 86 86 0z m85-128c-24 0-43 19-43 43l0 43 43 0c24 0 43-19 43-43 0-24-19-43-43-43z"/>
<glyph glyph-name="sign-euro" unicode="&#57498;" d="M363 405l0 43c-84 0-155-54-181-128l-54 0 0-43 44 0c-1-7-1-14-1-21 0-7 0-14 1-21l-44 0 0-43 54 0c26-74 97-128 181-128l0 43c-60 0-111 35-135 85l135 0 0 43-148 0c-1 7-2 14-2 21 0 7 1 14 2 21l148 0 0 43-135 0c24 50 75 85 135 85z"/>
<glyph glyph-name="sign-ramp-left" unicode="&#57499;" d="M299 316l114-98 28 33-106 90 49 0 0 43-128 0 0-128 43 0z m119-235l-299 214c-6 4-15 5-22 1-7-3-12-11-12-19l0-213c0-12 10-21 22-21l298 0c10 0 18 6 21 14 2 9-1 19-8 24z m-290 4l0 151 211-151z"/>
<glyph glyph-name="sign-ramp-right" unicode="&#57500;" d="M99 218l114 98 0-60 43 0 0 128-128 0 0-43 49 0-106-90z m316 78c-7 4-16 3-22-1l-299-214c-7-5-10-15-8-24 3-8 11-14 21-14l298 0c12 0 22 9 22 21l0 213c0 8-5 16-12 19z m-31-211l-211 0 211 151z"/>
<glyph glyph-name="skull" unicode="&#57501;" d="M213 277c0-23-19-42-42-42-24 0-43 19-43 42 0 24 19 43 43 43 23 0 42-19 42-43z m171 0c0-23-19-42-43-42-23 0-42 19-42 42 0 24 19 43 42 43 24 0 43-19 43-43z m-128-42l-43-64 86 0z m96-192c-19 0-36 7-50 19 0-1-1-2-1-2-8-8-22-17-45-17-23 0-37 9-45 17 0 0-1 1-2 2-13-12-30-19-49-19-41 0-75 33-75 74l0 40-31 16c-7 4-11 11-11 19l0 64c0 118 95 213 213 213 118 0 213-95 213-213l0-64c0-8-4-15-11-19l-31-16 0-40c0-41-34-74-75-74z m-53 96c11 0 20-9 21-20 0 0 0-2 0-6 1-15 15-28 32-28 18 0 32 15 32 32l0 54c0 8 5 15 12 19l31 15 0 51c0 94-77 171-171 171-94 0-171-77-171-171l0-51 31-15c7-4 12-11 12-19l0-54c0-17 14-32 32-32 17 0 31 13 32 30l0 0c0 2 0 4 0 4 1 12 11 20 22 20 12-1 21-10 21-22 0-2 0-3-1-5 0-7 2-17 7-22 2-1 5-5 15-5 10 0 13 4 15 5 5 5 7 15 7 23-1 1-1 2-1 4 0 12 9 21 21 22 0 0 0 0 1 0z"/>
<glyph glyph-name="sliders" unicode="&#57502;" d="M320 384l0 43c0 11-10 21-21 21l-86 0c-11 0-21-10-21-21l0-43-149 0 0-43 149 0 0-42c0-12 10-22 21-22l86 0c11 0 21 10 21 22l0 42 149 0 0 43z m-43-64l-42 0 0 85 42 0z m150-107c0 12-10 22-22 22l-85 0c-12 0-21-10-21-22l0-42-256 0 0-43 256 0 0-43c0-11 9-21 21-21l85 0c12 0 22 10 22 21l0 43 42 0 0 43-42 0z m-43-106l-43 0 0 85 43 0z"/>
<glyph glyph-name="slider" unicode="&#57503;" d="M512 277l-237 0c-10 49-53 86-104 86-52 0-95-37-105-86l-66 0 0-42 66 0c10-49 53-86 105-86 51 0 94 37 104 86l237 0z m-341-85c-36 0-64 29-64 64 0 35 28 64 64 64 35 0 64-29 64-64 0-35-29-64-64-64z"/>
<glyph glyph-name="small-caps" unicode="&#57504;" d="M491 341l-171 0c-12 0-21-9-21-21l0-64 42 0 0 43 43 0 0-214-43 0 0-42 128 0 0 42-42 0 0 214 42 0 0-43 43 0 0 64c0 12-10 21-21 21z m-299 86l107 0 0-43 42 0 0 64c0 12-9 21-21 21l-299 0c-11 0-21-9-21-21l0-64 43 0 0 43 106 0 0-342-64 0 0-42 171 0 0 42-64 0z"/>
<glyph glyph-name="speaker-volume-decrease" unicode="&#57505;" d="M251 423c-16 7-34 3-46-9l-67-94-53 0c-23 0-42-19-42-43l0-85c0-24 19-43 42-43l53 0 64-91c9-11 21-15 33-15 5 0 11 1 16 3 16 6 26 22 26 39l0 299c0 17-10 33-26 39z m-91-231l-75 0 0 85 75 0 75 106 0-297z m160 64l171 0 0-43-171 0z"/>
<glyph glyph-name="speaker-volume-high" unicode="&#57506;" d="M251 445c-16 6-34 3-46-10l-67-94-53 0c-23 0-42-19-42-42l0-86c0-23 19-42 42-42l53 0 64-92c9-10 21-15 33-15 5 0 11 1 16 3 16 7 26 22 26 40l0 298c0 18-10 33-26 40z m-91-232l-75 0 0 86 75 0 75 106 0-298z m160 214l0-43c59 0 107-48 107-107 0-58-48-106-107-106l0-43c82 0 149 67 149 149 0 83-67 150-149 150z m64-150c0 36-29 64-64 64l0-42c12 0 21-10 21-22 0-11-9-21-21-21l0-43c35 0 64 29 64 64z"/>
<glyph glyph-name="speaker-volume-increase" unicode="&#57507;" d="M251 423c-16 7-34 3-46-9l-67-94-53 0c-23 0-42-19-42-43l0-85c0-24 19-43 42-43l53 0 64-91c9-11 21-15 33-15 5 0 11 1 16 3 16 6 26 22 26 39l0 299c0 17-10 33-26 39z m-91-231l-75 0 0 85 75 0 75 106 0-297z m331 64l-64 0 0 64-43 0 0-64-64 0 0-43 64 0 0-64 43 0 0 64 64 0z"/>
<glyph glyph-name="speaker-volume-low" unicode="&#57508;" d="M251 445c-16 6-34 3-46-10l-67-94-53 0c-23 0-42-19-42-42l0-86c0-23 19-42 42-42l53 0 64-92c9-10 21-15 33-15 5 0 11 1 16 3 16 7 26 22 26 40l0 298c0 18-10 33-26 40z m-91-232l-75 0 0 86 75 0 75 106 0-298z"/>
<glyph glyph-name="speaker-volume-off" unicode="&#57509;" d="M463 390l-30 30-363-362 30-30 111 110 56-80c9-11 20-15 32-15 6 0 11 1 17 3 16 6 26 22 26 39l0 184z m-164-304l-58 83 58 57z m-149 112l0 79 75 0 74 106 0-36 42 42c-2 15-11 28-25 34-16 7-35 3-47-9l-66-94-53 0c-24 0-43-19-43-43l0-85c0-10 4-20 10-27z"/>
<glyph glyph-name="spelling-check" unicode="&#57510;" d="M98 299l102 0 25-64-33 0 0-43 107 0 0 43-28 0-102 263c-3 9-11 14-20 14-8 0-16-5-20-14l-101-263-28 0 0-43 107 0 0 43-33 0z m51 132l35-90-69 0z m320-166l-192-192-64 64-30-30 94-95 223 223z"/>
<glyph glyph-name="spray-paint" unicode="&#57511;" d="M149 384l64 0 0-64-64 0z m299 64c0-12-10-21-21-21-12 0-22 9-22 21 0 12 10 21 22 21 11 0 21-9 21-21z m-64-43c0-11-10-21-21-21-12 0-22 10-22 21 0 12 10 22 22 22 11 0 21-10 21-22z m64-42c0-12-10-22-21-22-12 0-22 10-22 22 0 11 10 21 22 21 11 0 21-10 21-21z m-128 0c0-12-10-22-21-22-12 0-22 10-22 22 0 11 10 21 22 21 11 0 21-10 21-21z m64-43c0-12-10-21-21-21-12 0-22 9-22 21 0 12 10 21 22 21 11 0 21-9 21-21z m64-43c0-11-10-21-21-21-12 0-22 10-22 21 0 12 10 22 22 22 11 0 21-10 21-22z m-363-213c0-24 19-43 43-43l107 0c23 0 42 19 42 43l0 235-192 0z m43 192l107 0 0-192-107 0z m21-128l64 0 0-43-64 0z"/>
<glyph glyph-name="strike-through" unicode="&#57512;" d="M128 427l107 0 0-107 42 0 0 107 107 0 0-43 43 0 0 64c0 12-10 21-22 21l-298 0c-12 0-22-9-22-21l0-64 43 0z m320-192l0 42-384 0 0-42 171 0 0-150-64 0 0-42 170 0 0 42-64 0 0 150z"/>
<glyph glyph-name="subscript" unicode="&#57513;" d="M305 506l-134-135-135 135-30-30 135-135-135-134 30-30 135 134 134-134 30 30-134 134 134 135z m186-442c11 0 21 10 21 21l0 64c0 12-10 22-21 22l-107 0 0-43 85 0 0-21-64 0c-11 0-21-10-21-22l0-64c0-11 10-21 21-21l107 0 0 43-85 0 0 21z"/>
<glyph glyph-name="subtract" unicode="&#57514;" d="M64 277l384 0 0-42-384 0z"/>
<glyph glyph-name="sunny" unicode="&#57515;" d="M256 363c-59 0-107-48-107-107 0-59 48-107 107-107 59 0 107 48 107 107 0 59-48 107-107 107z m0-171c-35 0-64 29-64 64 0 35 29 64 64 64 35 0 64-29 64-64 0-35-29-64-64-64z m-21 277l42 0 0-64-42 0z m157-47l30-30-45-46-30 31z m13-145l64 0 0-42-64 0z m-13-187l-46 45 31 30 45-45z m-157 17l42 0 0-64-42 0z m-115-17l-30 30 45 45 31-30z m-77 187l64 0 0-42-64 0z m77 145l45-45-30-30-45 45z"/>
<glyph glyph-name="superscript" unicode="&#57516;" d="M305 335l-134-134-135 134-30-30 135-134-135-135 30-30 135 134 134-134 30 30-134 135 134 134z m186 70c11 0 21 10 21 22l0 64c0 11-10 21-21 21l-107 0 0-43 85 0 0-21-64 0c-11 0-21-10-21-21l0-64c0-12 10-22 21-22l107 0 0 43-85 0 0 21z"/>
<glyph glyph-name="switch-left" unicode="&#57517;" d="M363 107l-214 0c-82 0-149 67-149 149 0 82 67 149 149 149l214 0c82 0 149-67 149-149 0-82-67-149-149-149z m-214 256c-58 0-106-48-106-107 0-59 48-107 106-107l214 0c58 0 106 48 106 107 0 59-48 107-106 107z m64-107c0-35-28-64-64-64-35 0-64 29-64 64 0 35 29 64 64 64 36 0 64-29 64-64z"/>
<glyph glyph-name="switch-right" unicode="&#57518;" d="M363 107l-214 0c-82 0-149 67-149 149 0 82 67 149 149 149l214 0c82 0 149-67 149-149 0-82-67-149-149-149z m-214 256c-58 0-106-48-106-107 0-59 48-107 106-107l214 0c58 0 106 48 106 107 0 59-48 107-106 107z m278-107c0-35-29-64-64-64-36 0-64 29-64 64 0 35 28 64 64 64 35 0 64-29 64-64z"/>
<glyph glyph-name="switches" unicode="&#57519;" d="M373 277l-234 0c-53 0-96 43-96 96 0 53 43 96 96 96l234 0c53 0 96-43 96-96 0-53-43-96-96-96z m-234 150c-30 0-54-24-54-54 0-29 24-53 54-53l234 0c30 0 54 24 54 53 0 30-24 54-54 54z m245-54c0-23-19-42-43-42-23 0-42 19-42 42 0 24 19 43 42 43 24 0 43-19 43-43z m-11-330l-234 0c-53 0-96 43-96 96 0 53 43 96 96 96l234 0c53 0 96-43 96-96 0-53-43-96-96-96z m-234 149c-30 0-54-24-54-53 0-30 24-54 54-54l234 0c30 0 54 24 54 54 0 29-24 53-54 53z m74-53c0-24-19-43-42-43-24 0-43 19-43 43 0 23 19 42 43 42 23 0 42-19 42-42z"/>
<glyph glyph-name="bluetooth" unicode="&#57520;" d="M256 21c-3 0-6 1-8 2-8 3-13 11-13 20l0 161-113-112-30 30 134 134-134 134 30 30 113-113 0 162c0 9 5 17 13 20 8 3 17 2 23-5l107-106c8-9 8-22 0-30l-92-92 92-92c8-8 8-21 0-30l-107-106c-4-5-9-7-15-7z m21 183l0-110 56 55z m0 214l0-111 56 56z"/>
</font>
</defs>
</svg>
